<mxfile modified="2022-09-03T21:55:36.099Z" host="app.diagrams.net" agent="5.0 (Windows NT 10.0; Win64; x64) AppleWebKit/537.36 (KHTML, like Gecko) Chrome/104.0.0.0 Safari/537.36" etag="vutBDXa5Z63TwgfaJiLo" version="20.2.8" type="github">
  <diagram id="Ht1M8jgEwFfnCIfOTk4-" name="Page-1">
    <mxGraphModel dx="1929" dy="873" grid="1" gridSize="10" guides="1" tooltips="1" connect="1" arrows="1" fold="1" page="1" pageScale="1" pageWidth="827" pageHeight="1169" math="0" shadow="0">
      <root>
        <mxCell id="0" />
        <mxCell id="1" parent="0" />
        <mxCell id="UEzPUAAOIrF-is8g5C7q-2" value="AWS Cloud" style="points=[[0,0],[0.25,0],[0.5,0],[0.75,0],[1,0],[1,0.25],[1,0.5],[1,0.75],[1,1],[0.75,1],[0.5,1],[0.25,1],[0,1],[0,0.75],[0,0.5],[0,0.25]];outlineConnect=0;gradientColor=none;html=1;whiteSpace=wrap;fontSize=12;fontStyle=0;shape=mxgraph.aws4.group;grIcon=mxgraph.aws4.group_aws_cloud_alt;strokeColor=#232F3E;fillColor=none;verticalAlign=top;align=left;spacingLeft=30;fontColor=#232F3E;dashed=0;container=1;pointerEvents=0;collapsible=0;recursiveResize=0;" parent="1" vertex="1">
          <mxGeometry x="580" y="133.7" width="970" height="596.5" as="geometry" />
        </mxCell>
        <mxCell id="jldge3NsWJjI23dx_AQY-5" value="" style="shape=image;verticalLabelPosition=bottom;labelBackgroundColor=default;verticalAlign=top;aspect=fixed;imageAspect=0;image=data:image/png,iVBORw0KGgoAAAANSUhEUgAAFfkAAAXUCAMAAADkOjJkAAAAM1BMVEVHcEzyyBHyyBHyyBHyyBHyyBHyyBHyyBHyyBHyyBHyyBHyyBHyyBHyyBHyyBHyyBHyyBGJajhIAAAAEHRSTlMAECAwQFBgcICQoLDA0ODwVOCoyAAAyqpJREFUeNrs3Yt22zqWNlrxJsmOkzrv/5R/Zzu2JN7OsLMvuTiJbQEEQM7Z1dU1etSWJZAigU+LC7sdAAAAAAAAAAAAAAAAAAAAAAAAAAAAAAAAAAAAAAAAAAAAAAAAAAAAAAAAAAAAAAAAAAAAAAAAAAAAAAAAAAAAAAAAAAAAAAAAAAAAAAAAAAAAAAAAAAAAAAAAAAAAAAAAAAAAAAAAAAAAAAAAAAAAAAAAAAAAAAAAAAAAAAAAAAAAAAAAAAAAAAAAAAAAAAAAAAAAAAAAAAAAAAAAAAAAAAAAAAAAAAAAAAAAAAAAAAAAAAAAAAAAAAAAAAAAAAAAAAAAAAAAAAAAAAAAAAAAAAAAAAAAAAAAAAAAAAAAAAAAAAAAAAAAAAAAAAAAAAAAAAAAAAAAAAAAAAAAAAAAAAAAAAAAAAAAAAAAAAAAAAAAAAAAAAAAAAAAAAAAAAAAAAAAAAAAAAAAAAAAAAAAAAAAAAAAAAAAAAAAAAAAAAAAAAAAAAAAAAAAAAAAAAAAAAAAAAAAAAAAAAAAAAAAAAAAAAAAAAAAAAAAAAAAAAAAAAAAAAAAAAAAAAAAAAAAAAAAAAAAAAAAAAAAAAAAAAAAAAAAAAAAAAAAAAAAAAAAAAAAAAAAAAAAAAAAAAAAAAAAAAAAAAAAAAAAAAAAAAAAAAAAAAAAAAAAAAAAAAAAAAAAAAAAAAAAAAAAAAAAAAAAAAAAAAAAAAAAAAAAAAAAAAAAvF5lCP4eiGZX10///qR5GpZxfvqP07TbDc//DgAAAABQCMlvUzd1Xdd/+q/N4zxO09c0GAAAAAAga1tOfqumbermbf/MPI7TODhvAAAAAICcbTX5bZ9S33f/0+MwDvo/AAAAAAC52mLy23Rte/2rzMMwjE4gAAAAACBDW0t+q65rw33maRh6nX8BAAAAgNxsKvmtu30T/EXHS6/xAwAAAACQle0kv1Fi36+m/qLvAwAAAACQj40kv1V3aKL+gelyUfkLAAAAAGRiE8lvu98v8FfGs56/AAAAAEAW1p/8VvtDvdTfulwGpxQAAAAAkNzak9/62C36EafzReEvAAAAAJDYupPf9tAt/0f7ftDyFwAAAABIac3Jb3tsE/3lcei1fQAAAAAAkllv8psu930294MN3wAAAACANNaa/CbOfb8aL8PoFAMAAAAAFrfO5Le+bTN5J9PQD0p/AQAAAIBlrTH5rW72Wb2ffuht+QYAAAAALGiFye/hmN+HmnpbvgEAAAAAi1ld8tve1nm+sXnoB6W/AAAAAMASVpb85tbo4Qdj39vyDQAAAACIbl3Jb3eb/eeZe1u+AQAAAACRrSn5rW67Mt7o0NvyDQAAAACIaEXJbwEFv/+Z+qF39gEAAAAAcawm+c28w+9Lelu+AQAAAABRrCX5bT7UJb7tcbjY8g0AAAAACG0lye/hpti3PvdDb8s3AAAAACCkVSS/xWzt9ivjZVD6CwAAAAAEs4bkt7ltyv8Q09Db8g0AAAAACGMFyW93u5Zmxf3Q2/INAAAAALhe+aHp8bim4zH1/eCsBAAAAACuU3zye7tf2yGZh96WbwAAAADANQpPfqu7ZpWHZex7W74BAAAAAO9VdvJbf2hWe2Tmvh+U/gIAAAAA71F08tvcVes+OkNvyzcAAAAA4O1Kjk5XH/zunrd8G3qnKQAAAADwJgVnp5sIfndft3wblP4CAAAAAK9Xbni6meD32ThcbPkGAAAAALxSsenptoLf3fOWb0NvyzcAAAAA4BVKjU+3F/w+G/pB6S8AAAAA8CeF5qcbDX6fTENvyzcAAAAA4LfKDFA3HPw+64felm8AAAAAwC8VmaBuPfjdPW/51g9OXwAAAADgRSVGqNVd48A9bfk29LZ8AwAAAABeUGDyK/j9xtj3tnwDAAAAAH5QYPL7oXPYvjUN/aD0FwAAAAD4RnnJ783BUfvJ0NvyDQAAAAD4V3HJ7/7WQXvR1A+9UQAAAAAAdgUmv81Hx+yX5qEflP4CAAAAAKUlv9WnyjH7LVu+AQAAAAClJb93rUP2R3M/9LZ8AwAAAIAtKyv5tbvbaw39oPQXAAAAADarqOS3vXPAXs+WbwAAAACwWSUlv5r8vlk/9LZ8AwAAAIDtKSlL1eT3PcahH4wCAAAAAGxLQcnv4cbheh9bvgEAAADAxpST/DZ3ej1cYex7W74BAAAAwFaUk6Z+bByt60xDPyj9BQAAAIAtKCb5PR4drABs+QYAAAAAW1BK8lt/cqwCmfqhNwoAAAAAsGqlJL93rWMVzjz0g9JfAAAAAFivQpLf/a1DFZgt3wAAAABgvcpIfqtPlUMV3tzb8g0AAAAAVqmMRPV270hFMvSD0l8AAAAAWJsikt/mowMVkS3fAAAAAGBtikh+be8WXW/LNwAAAABYkRKSX9u7LWIc+sEoAAAAAMAqlJD8fqodp2XM/dDb8g0AAAAAyldA8ns8OkwLGi+2fAMAAACA0uWf/FafKodpWdPQD0p/AQAAAKBg+aeqSn6T6Ifelm8AAAAAUKrsk18lv8lMvS3fAAAAAKBM2ceqSn5Tmod+UPoLAAAAAMXJPflV8pvc2Pe2fAMAAACAsuSeqyr5zcHc2/INAAAAAEqSefKr5DcbQ2/LNwAAAAAoRebB6uHGIcrH1A+9UQAAAACAAmSe/H6qHaK89LZ8AwAAAID85Z387m8dofyMw8WWbwAAAACQtbyT37s2l3cyj0//+lv7/K8tm/uht+UbAAAAAGQr6+S3+ZjBmxjHaZhfqHFtqrZumg2fOuNlUPoLAAAAAHnKOvm93af9+/MwjMPv/ytt07bVZs+eaeht+QYAAAAAGco5taz+l/KvT30/vO6/2bTdhps/9ENvyzcAAAAAyEzOye/hJtmfnvrzm+LMquu67Z5Erw/JAQAAAIBF5Jz8fqoT/eHL5R1BZtUdNtz1dx56W74BAAAAQDYyTn4T7e82n8/vjTDrw77a8Lk09r0t3wAAAAAgCxknlUn2d5tOV5WuVt2x3vLpNPf9oPQXAAAAAJLLOPn93/LvbT6frn6NruuqTZ9SQ2/LNwAAAABILN+Qsvuw+J88n8LUq7Zdt+nK393UD73vFgAAAACkk2/y+6Fb+A8ODwFLVZt232z6xJqHflD6CwAAAACJZJv8Vv9b9u/Np3PgV6y7ttv2yTUOF1u+AQAAAEAK2Sa/+9tF/1zQgt//RrdrN970d+6H3pZvAAAAALC0bHPJZZs9nE7RXrprN970dzf0g9JfAAAAAFhUtsnv/7fg35q/DFFfv+m6bTf93U1Db8s3AAAAAFhOrslv92G5vzV+ib8Vmaa/u37obfkGAAAAAMvINfm93S/2p/qHZRrRavq7G4d+8J0DAAAAgPhyjSL/t9gbuzws+LE0/Z2H3pZvAAAAABBbpslv83Gpv7Ro8LvT9PfJ2Pe2fAMAAACAmDJNfo/Hhf7Q4sHv7rnpb9du/Lybhn5Q+gsAAAAAsWSa/N4tlIwmCX6fx73r2o03/d0NvS3fAAAAACCOPNPH6n/L/J1kwe+zrms33vR3N/VD70sIAAAAAMHlmfx2Hxb5M8N96g/a7NutN/2dh35Q+gsAAAAAYeWZ/N4clvgr430OnWY1/bXlGwAAAACElmfy+3GJQtj5Ppe0UdPf3W7uh96WbwAAAAAQSJaB4zJtfr9k1WFW09+nLd8Gpb8AAAAAEEKWyW97t8AfOT/m9rE1/bXlGwAAAACEkWXyezzG/xt5NPn9Ud3tNx/+7vqht+UbAAAAAFwly+T3boEtz/7Kta9A1XXd5k/LcegHX04AAAAAeLcsk9//xX9Xp1POR6Xruq3v+GbLNwAAAAC4Qo4BY/0p+p+Y/so9VGz23eZ3fNuNfW/LNwAAAAB4hxyT3+5D9D/xpYRtxDT9fcroh35Q+gsAAAAAb5Rj8ht/g7fhvpTDo+mvLd8AAAAA4O1yTH7jb/B2X9L2YZr+PpX+9kPv2woAAAAAr5VjpvgpdoPbYkp+/6Hp79OWb0M/KP0FAAAAgFfJMfn9/2L/gb8K3DZM09+dLd8AAAAA4LUyTH7bu8h/oLiS37/Vraa/u93c2/INAAAAAP4kw+S3+xD5DxTV5feHw9Vq+vuU3feD0l8AAAAA+I02v7cUu6nBWG7w+1Twumu7zTf9bVtbvgEAAADA72RYQHq7j/v6D5fij1rTavq72+16W74BAAAAwMsyrPmNXNA6r6BUdBzPmv7udl23G4d+8C0GAAAAgB9lWPP7KW70e3lYzbHT9Hf3HOUPvS3fAAAAAOA726v5XU93WE1/n1X7/W682PINAAAAAL6RX81o9b+oLz//39oOoaa/z6ahH5T+AgAAAMBX+SW/7V3Ul19Ps4dv1F3bOZd3u37obfkGAAAAAFtMfr/0Kz2QXavp71Ppb2/LNwAAAADYXvL7/1Z8MLt2801/n8xDPyj9BQAAAGDbtpb8DvfrPp5N12n6u9vtxr635RsAAAAAG7a15Pd0Wv0h1fT3q7m35RsAAAAAm7W15Pd+E01gNf3929Db8g0AAACATdpa8vv/NnNkNf39auqH3igAAAAAsDUbS37Hv7Z0cDX9/VtvyzcAAAAANqbd1scdNvVpx/FUd13rLO+63ThcbPkGAAAAwHZsLBbcXOXndD5XXddq+ts0h7kfelu+AQAAALAN+XUDqPcRX/y8xYf+x/487irhb9V0x67aCX8BAAAA2ICN1fxu9YH/vt81+1bT311zs5uG3pZvAAAAAKzdxpLfDdd7jo87TX93z0Xl+10/9LZ8AwAAAGDN8usB0N7Fe+3hfvPHW9Pfv019PxgFAAAAANZqW31+p8vmD7imv3+r2v2hrVT+AgAAALBO23r6f3TANf39T9V1u7HvnRUAAAAArM+2kt/ZAf/quenvXvi72zXNce77wZkBAAAAwLrY8WurpvO56rrOQOyq/X439LZ8AwAAAGBNtrXD25feEf9B13Wa/j6b+sHpAQAAAMBa6Pawcc9Nf7vaQOzqw2Ee+kHpLwAAAABrsK2a3/vBEX+Rpr//GoeLLd8AAAAAKJ4+v2j6+62mOcz90CsPBwAAAKBokl++mi8XTX+/+rrl26D0FwAAAIBySX75j6a//30x2t009LZ8AwAAAKBQ+vzyI01//9MPvS3fAAAAAChQfhFfvY/32hcp3ivM4+Uy7oS/z9+P7tA1O6cNAAAAAKXR7YEXTJdL1Wr6++xpy7eht+UbAAAAAEWR/PKyue93bafp75Oq63Zj39vyDQAAAIBibKvbw6TP7xvH69xPtfD3+bxsD/tmp/IXAAAAgDKo+eW3xvFct11nIJ5/lNjvht6WbwAAAAAUYFs1v4Oa33eYx/487mpNf59Pz+6wryvhLwAAAACZU/PLK2j6+4368LTl2yD9BQAAACBjkl9eaRgem3bfGAhbvgEAAACQP8kvr/fU9LdrNf191jTHuR96e74BAAAAkCN9fnmTp6a/06zp77Oq6Y5ttRP+AgAAAJAdNb+81Xy57LpW09+/v0HtbuqH3kAAAAAAkJX8ajfbu3ivfTo54sE0Xafp77/6obflGwAAAAD50O2Bd5qHy2XaCX///iJ1h67ZCX8BAAAAyIRuD7zfdD5XXdtp+vusaQ62fAMAAAAgE5JfrqLp77eq/X439v1oJAAAAABITLcHrjYN536uhL9/n8DtYd/sVP4CAAAAkJSaX0IYx1Pddc6mr+r93pZvAAAAACSVX4vW9i7ea59OjnjUs6nrWk1//zX1Q28UAAAAAEhCtwcCGvvzuKuEv19V7f7QVrPGDwAAAAAsz/P5hNX3u2bfNgbiWdV1tnwDAAAAIAHJL8GNjztNf//TNMe57welvwAAAAAsSDxHDNP5rOnvf6r9fjf0g9JfAAAAAJYi+SWS+XLZdV1bG4m/v2qtLd8AAAAAWIzkl4g0/f1OfTjs+n6YjAQAAAAAsUl+ieu56e9e+PuPpy3fhn4wEAAAAABEJfkluq9NfzsD8bemOcz90NvyDQAAAIB4JL8s4WvT386Ob3972vJtvNjyDQAAAIBYJL8s5bnpb2fHt380N7tp6AelvwAAAABEkF8RZnsX77VPJ0c8NU1/f9APvS3fAAAAAAgtvxCu3sd77cHGWsnN4+U87YS//30Fu8O+3gl/AQAAAAhKtwcWp+nvD+rDYR76QfoLAAAAQDCSX5LQ9Pd7Vdftxr635RsAAAAAYejzS0Ka/v5g7m35BgAAAEAIan5JaDqf67brDMQ/qv1+N/S2fAMAAADgWnZ4I6157M/jrtb0979vwNOWb5XwFwAAAIBrqPklubnvd22n6e9/6sNh19vyDQAAAID3k/yShWF4bFpNf7/xtOXbcLHlGwAAAADvIvklF+Oo6e/3muYw90NvyzcAAAAA3kzyS0amy6Vqu07T3389bfk2XgalvwAAAAC8jeSXvGj6+5PmZjcNfW8gAAAAAHg9yS/50fT3R/V+v+uH3pZvAAAAALxSfulavY/32sPgiBdiHi+XaSf8/fa72h329U74CwAAAMBrSH7J1Tz252muNf39T9XuD20l/AUAAADgj3R7IGPz5bLrWk1/v1F13W7se1u+AQAAAPBban7J3DSc+7kS/n77HWkPh2Y3GwgAAAAAfknNL/kbx1PdtZ2B+E+13++G3pZvAAAAAPyCml+KoOnvC1+Vpy3fdP0FAAAA4CVqfimFpr8/qw+HeegH6S8AAAAAP5D8UpK+f2y6rjEQ/3ne8m242PINAAAAgG9JfinMc9Pfzon7raY5zP3Q2/MNAAAAgH/o80t55vFynnaa/n6rarpjW+2EvwAAAAA8UzpJkZ6b/natpr/ffZvb3TT0vYEAAAAAQPJLufp+1+xbTX+/Ve/3u37obfkGAAAAsHW6PVCyebhcpkrl7/df6u7QNTvhLwAAAMCmqfmlcNP5XHVdq+nvt562fBt6W74BAAAAbJfkl/Jp+vuCqut2Y9+PRgIAAABgkyS/rIOmvy9omuM09IPSXwAAAIDtkfyyGuPjru72wt/vPG35NvS2fAMAAADYGju8sSbzeDlPO+HvD9+p7rCvK+EvAAAAwJao+WVlvjb97ez49p368LTl2yD9BQAAANgKyS8r9Nz0t7Pj23ds+QYAAACwJflVRrZ38V77dHLEN0TT35fM/dDb8g0AAABg9fT5ZbU0/X1J1XTHttoJfwEAAADWTbcH1kzT35e/9u1u6ofeQAAAAACsl+SXtdP09yX14bDrh96WbwAAAAArpc8v26Dp74vGodcCBQAAAGCN1PyyDdP5XLddZyC+1zQHW74BAAAArJHkl82YLpeq1fT3R9V+vxv7fjQSAAAAAGsi+WVL5r7ftZ2mvz9qmuM09IPSXwAAAIDVkPyyNcPw2LSa/v6o3u9t+QYAAACwHnZ4Y5s0/X3Z1A+9UQAAAAAon5pftknT35fVh8M89IPSXwAAAIDCSX7ZLE1/X1Z1nS3fAAAAAEon+WXTNP19WdMc596WbwAAAADlkvyydeN4rrtW098fVfv9bugHpb8AAAAARZL8wm46n6uu1fT35+tDa8s3AAAAgDJJfuHJfLnsulbT35/Uh8Out+UbAAAAQGkkv/CPvn9suk7T3588bfk29IOBAAAAACiH5Be+MY4nTX9f0jSHuR96W74BAAAAFELyC9/T9PcXnrZ8Gy+2fAMAAAAoguQXfqLp7680N7tp6AelvwAAAAC5y6+nab2P99qDTqW81jSc+7kS/v6kavbHpp6FvwAAAABZk/zCr8zD5TIJf1+6bnSHfb2bDAQAAABAtiS/8BvzeDlPu1rT359U7f7QVkp/AQAAADKlzy/83nPT365V+vuTqut2Y9/b8g0AAAAgQ5Jf+LO+3zX7tjEQP2ma49zb8g0AAAAgO5JfeJXxcVd3nS/Mz6r9fjf0va6/AAAAADnR5xdeS9PfX39tn7Z8q4S/AAAAANmQ/MJbjP153FXC359V7f7Y2PINAAAAIBMeXoc30vT3l562fBsutnwDAAAASE/yC2/33PR3L/x9QdMc5n7olf4CAAAApCX5hXeZzueq6zoD8bOnLd/Gy6D0FwAAACAhyS+813y57Lqu0/T3Bc3Nbhr63kAAAAAAJCL5hWs8N/3tagPxs3q/3/VDPxkJAAAAgATyK1ds7+K99unkiBODpr+/NvX9YBQAAAAAlpZfXFXv4732IIEiinm8nKed8PclVbs/tJXKXwAAAIBl6fYAQWj6+2tV1+3GvrflGwAAAMByJL8QjKa/v9Y0x7nvh9lIAAAAACxCn18ITNPf3xh6W74BAAAALEGfXwhsHi+XUdPfX3y/u8O+1vUXAAAAIDrdHiC86XKpWk1/X1YfDvPQD9JfAAAAgJgkvxDF3Pe7ttP090XPW74NF1u+AQAAAEQj+YVohuGxaTX9fVnTHOZ+6G35BgAAABCF5BdiGsdz3XadgXhJtd/vhn5Q+gsAAAAQnuQXItP097eXoHY3DX1vIAAAAADCkvxCfJr+/k693+/6obflGwAAAEBA+dUhtnfxXvt0csRJSNPf3xmHfjAKAAAAAIGo+YXFPDX97VpNf1/2tOXb0NvyDQAAACAIyS8saTqfq67V9PdlVdftxr635RsAAADA1SS/sLD5ctl1raa/v9A0x2noB6W/AAAAAFfJr+tovY/32oM2ouRhGs79XAl/X1Y1+2NbzcJfAAAAgPeT/EIa83C5TDs7vv3qQtAd9nU1GQgAAACA95H8QjLz2J+nudb092VVuz8o/QUAAAB4H31+ISVNf3/Llm8AAAAA75RftWF7F++1TydHnCw1Xafvw6/N/dAr/QUAAAB4CzW/kIFxPNVd5+v4C9V+vxv6QekvAAAAwKuJmiAP0/lcdV2r6e+vrlXtbuqH3kAAAAAAvIrkF7Lx3PS3azX9/YX6cNj1Qz8ZCQAAAIA/kvxCVvp+1+xbTX9/petuxqEfDAQAAADA70l+ITfj407T399omoMt3wAAAAD+QLoEGdL09/eetnwb+96WbwAAAAC/kt9D5fU+3msPnhGnHGN/HneV8PeXl4r2sG92Kn8BAAAAXqTmF/Kl6e/v1fu9Ld8AAAAAXiT5haw9N/3dC39/qetupn7oDQQAAADAd3R7gNzN4+U87YS/v1S1+0NbzRo/AAAAAPxHzS8UYL5cdl3Xafr7K1XX2fINAAAA4BuSXyjEc9PfrjYQv9I0x7nvB6W/AAAAAE+Vctm9o/Yu3mufTo44hdP090+GflD6CwAAAKDmF4oync9V13UG4tcXtXZnyzcAAAAAyS+URtPfP6kPh13fD5ORAAAAALZL8gsl0vT3T562fBv6wUAAAAAAG6XPL5RL098/mfuht+UbAAAAsEVqfqFc0/lct5r+/ka13+/Giy3fAAAAgO2R/ELRpsulajX9/Z3mZjcN/aD0FwAAANgUyS+Ubu77Xdtp+vsb9X6/64felm8AAADAdujzCyvRtJr+/sHU2/INAAAA2Ao1v7AS46jp7x/Uh8M89IPSXwAAAGADJL+wHpr+/lHVdbux7235BgAAAKyd5BdWRdPfP2ua49zb8g0AAABYN8kvrM4wPGr6+3vVfr8belu+AQAAAOuVXzhU7+O99mB3JzZiHi+XaSf8/e21pjvsZ20fAAAAgJWS/MJKzWN/nuZa09/fqLp2UvcLAAAArJLkF1Zs7M+j8Pf3F5x21PAXAAAAWCHJL6zbNJz7ubLj268vOYfahQEAAABYH8kvrN48aPr728vgYafdLwAAALA2kl/YAk1/f6fqOu1+AQAAgJWR/MJWaPr7u+tOpewXAAAAWBXJL2yIpr+/1O5HZb8AAADAikh+YVuem/4Kf39WKfsFAAAA1kTyC5szj5fztNP34UfKfgEAAIAVkfzCJj01/d1Vwt/vVPudawQAAACwEpJf2KqpP/c7fR++03bDbBQAAACANZD8woZp+vvzBWjS8QEAAABYA8kvbJumv9+r9pXrBAAAALACkl9A099vtW1vEAAAAIDiSX4BTX9/uAhp9gsAAAAUT/ILfPXc9LcW/j51fNDsFwAAACid5Bf419emv83mx6HaT6OzAQAAACia5Bf4ztifRju+dbVmvwAAAEDRWkMA/KDvd82+23bfh/3uwYkAAAAAFEzNL/CCeThvvOlv07heAAAAAAWT/AIv23rT36bT8AEAAAAol+QX+LVNN/2tRb8AAABAuSS/wG9N/bnfaPgr+gUAAADKJfkF/mSzTX9FvwAAAECxJL/AK8zj5TJur+mv6BcAAAAoleQXeJ157M+ba/or+gUAAAAKJfkFXm/qz8O8qfC3rkW/AAAAQIlaQwC8xTA8Nu1+O30f9rsHBx0AAAAoj+QXeKtxPNdt123k0+7nR4ccAAAAKI7kF3iH6XKp2q7bRN+Hw3hxwAEAAIDSSH6B95n7ftd2Xb3+T3o7aREOAAAAlMYOb8D7TcO5n+rVh7/dMDvWAAAAQFkkv8BV5vFymXbr3vGtansHGgAAACiL5Be41jz252muV9z0t261+gUAAADKIvkFQhj787ji8LfeuXoAAAAARZH8AoE8Nf2dq5U2/W3HyREGAAAACiL5BcKZh9U2/e16u7wBAAAABZH8AkGttelvpdUvAAAAUBLJLxDcKpv+1pULCAAAAFAOyS8Qwwqb/raDVr8AAABAMSS/QCTPTX/XFP52+j0AAAAAxZD8AvHM4+U87dbS96FqeocUAAAAKITkF4jrqenvrlpF+NuM+j0AAAAAhZD8AtFN/bnfraHvg34PAAAAQCkkv8AS1tH0V78HAAAAoBStIQCWMZ3PVde1Rfd96Fq/HwEAAABFUPMLLKj4pr+tfg8AAABAESS/wLLKbvpb7VxGAAAAgBLo9gAsbnzc1d2+KfK9Hy+TA7gpx+M6vnTzP//p+beLefznPwEAgKn58qbp25n607/9N2WngHPndCrls0t+gSS3ueemv12B7/z23tGjPM3L9/2nBHh4+tdzFAwAACyjrl+Yn0/T07+G/2JhuJrkF0hkvlx2XdeV1vS3tckb61G1/00Exnma5lElMAAAJPJvHPxUmTHMo/oMrif5BRLq+12z78pq+nv72XFjjf4tCx7mcZo8awYAAMlU7dfAbprGaVQCzBUkv0Ba4+NjWU1/6/3FUWPdM4PnPizDPI6TIgMAAEi4/Kyfc7thnEa1GbxzfQeQWGFNf4+SX7YxQXj6To7TOKgxAACApHPzp/RuGsdB/MvbF3YA6ZXU9Lc+nhwwtqJpuqcuY8M4in8BACDlSrTudrtpGAcP5vEGkl8gF8U0/T2c/c7KplRPNQbzOCgxAACApOr915m5jZl5JckvkJEymv5WB0W/bM9z/DuOw6D4FwAAUs/Mh6FX+8srSH6BvEznc91m3vRX0S9b1TT73TwMHjADAICk2vY4D72yDP54phgCIDfT5VK1OTf9rfZnR4nNqrpuNw1qfwEAIPnEfBx6jR/4HckvkKO573dtl23T34Pkl22r9/vdOAy9kQAAgISa5jD3vXk5vyT5BXI1DI9Nm2fT33p/cXwwyTzses+XAQBAUtV+L/zllyS/QMbGMdOmv0fJL+x2u6fny3pbSwAAQErCX35J8gvkLc+mv3WrlxI8a5rj1F+EvwAAkNBz+Hs2LedHkl8gezk2/T1IfuEf9eEg/AUAgLSq/X4697qx8R3JL1CE3Jr+drX7KfznKfy9XHwrAAAg5bT85qa/6PrANyS/QCmemv52bS5Nf/cnRwS+m2Uej+O5nw0EAACk03XT5WxWzj8kv0BBpvO56tosmv5KfuEnze3uYmMJAABIqT4eLzr+8jfJL1CW+XLZdW36pr91J9+Cn+33uj4AAEDqWflwuRgGnspzsntH9T7eaw+2ZIJVmIZzP1eJw99K8rsJrV9I3/zVaA/NTvYLAICpeUJ1t5/V/cY7d8pJGH1tgCKN4ylx09+u0joJfvHt6KbzxRcEAADSqW9vzhr+IvkFSpW66W/n4Rn45TTz5tifFP4CAEA61fEg+908yS9QsKRNfw+SX/jNNHO/78+aLAEAQMJJuex38yS/QOH6/rHpugRNy5taRSP8TtfZVwIAAFKS/W6d5Bco33PT3/3i4W93NvTw+1lGezzJfgEAIJ3quDcn37Amu3dU7+O99uCxU1irebxcpmbZnr+1u+cG2ED42nmmPYUBADA1Tz0nHyfnTlDlJIy+NsBaTOdze+gW/INN5ZkZ+KP6Vt0vAAAknZPfDY/qMTZ67A0BsB7Dl89LJkydEYfXzDVuP+2NAgAApNN+vKmMwiZXY4YAWJPpYcHsV/ILr5xt3H7ykBEAACR0UI6xzbWYIQDWZXr43C/0p0RZ8Or5xt2dLwwAAKRT3d41RmF7KzFDAKzN9OV+me71lSQLXq29uzXpAACAhFPyj0ctH7bGIgxYoeHzaZG/o90DvMH+k4kmAAAkdPyofmljJL/AKp3+WmLjUvdMeONEU28xAABIp76z09vGjrghAFZpvD/H/yONWya8bdqhtxgAAKR0UPa7rSWYIQDWaX78Mkf/I+6Y8NYvzUdFBgAAkI6y320dbkMArFV/H73jg+pFeLPDRx2yAQAg4Yzcg3jbIfkF1mu8HyL/BTW/8I65x4cPigwAACCZ5uPBIGxl9WUIgPWa7y9x/4DkF96j+2SnNwAASOdGMcZGSH6BVXsQ/UKGqts7M00AAEim+6TjwyZIfoF1ezhHfXn3Snif9pNuvwAAkEyl48MmSH6BlXuMGv1KfuG9M03dfgEAICEdH7ZA8gus3WPMhg+SX3i37pN2KQAAkG5CfmdFu3qSX2D1Yvb6dZ+E96vubgwCAACk0typxVg7yS+wfg9jxDul4YX3O3w0EQEAgFSqu71BWDcLLmAD7idXUchS89FGbwAAkMztrTFYNZkFsAHzl2gvreYXrlJ90PEBAACS2dvnbdUkv8AWjI+xXlnyC1c6fDTVBACAVLo78/EVk/wCm3AeIr2wWyRcq/nkFxQAAEg2H/9oPr5ekl9gGx7mOK9rJ1S4WvXRvhIAAJBKfSf6Xe/BNQTAJkwnYwDZsq8EAAAkU4l+V0vyC2xErH4Pin4hgL3mYgAAkIqn8FZL8gtshaJfyFirzAAAAJK5Ff2uk+QX2IrhEuVlpVUQ5qsk+gUAgGREv+sk+QU2I07Rr0fUIdB36c5cEwAAUhH9rpLkF9iMKUrRr+QXQn2ZzDUBACAZ0/E1kvwC2xGl6NcD6hBurnk0BgAAkGo6LvpdH8kvsB1xin6BYI63xgAAABIR/a6P5BfYkJMhgLztRb8AAJDKjYda10byC2zI1Id/zdawQkCiXwAASKW6E/2ujOQX2BLtHiB3+w+2TQQAgDREv2sj+QW2pJ+MAWSuuxP9AgBAGtWt2fiqSH6BTVH0C9lrRL8AAGA2TgCSX2BTJL9QwmTTGAAAQKLZ+I0xWBHJL7ApEfZ4cx2F4JNN27wBAEAi+6MxWA+JBbAtkl8oYbIp+gUAgESOe2OwGhILYFt6QwAFEP0CAEAqN40xWAvJL7Ats+gXSiD6BQCARKoPdnlbC8kvsDGSXyjC3iNmAACQRv3BGKzlUBoCYFsGQwBFuBX9AgBAGq1d3lZC8gtszDQaAyjCbWsMAAAgiaPJ+DpIfoGtUfQLhfhgYwkAAEg0GdfqdxUkv8DWSH6hEDaWAACAZJNxY7AGkl9gayS/UMws5c4YAABAEu3BGKzhMBoCYGPm0RPkJDQs+dtDUxV+r29uH5wyAACUPjWv6xLn5TeDXXLKJ/kFNkfyS9Lp5SnV/b6ud1XzdxhcjP14ds4AALCaqXn7XJ7RPs3M83f7l5OkeJJfYHP8bMkWZ7X//ceq2bW7piokAr4ZNWgBAGBN8/J/5rft3/+Tr+Z4csRKJ/kFNkfyy7bNw9+TzbZq6jr7icCHvybHDACA9fl7Wl7XTd1kWpZx7C2fSyf5BTbHrQv+nmr2zyXATZNz/lt98IwZAADrNU3D86y8rZv8OkDo91A8yS9EU9dN9bWNexDzuBtmmWWQoZwrgwD/fiGeN7ZomqbJdE7Q3Dw6SgAAbGFW3rZNm9VyVb+H4kl+Ic5Xq22DP6zRPf3bOIyDJ5+vNbr0wY/fiqfflZq2aev83tthvDhAAABswFP8W7dtRpPyw0UCUTbxBwRXdV0X7cWfnv4Yh4va36u4c8GLnuLfvCaaX934wQsAgM2sVy+XXd21mdT+Vrf3DknRJL8Q2D5i7Pu3pjlM58tsrN9/JzUE8NuJZtt2OT1kptUvAADbmpSfz7u263KoyGi73vEomeQXQqoOh2XSkvrm5nJW+Pvuu6ghgN9+RS6XXdN1+WwwodUvAABbMwyPTbtPPye/GdSdlUzyC+Eslvs+2++H02DQ30XyC380jqeorWve5tC73AEAsL05+bne7xNX/tYHm7yVTPILoSyb+z5/f+/6RxkmEMt8uWQT/t7+pdIAAIDtmU6n5pC2FZtN3oom+YVAupsEv8N13eksDXnHvdMQwOtkE/7Wt18cDQAAtmh82O33CfO76vjgIJRL8gthroS3iZKR4/7BM9BvJvmF15svl7o7JN9corOzBAAAW3W51Md0hb/7kzV0uWpDAAF0n5KVxNV3N8YfiGo6f76/pH4Tt5UDAQDAZqfkD5/T5a+3xr9ckl8I4OZDykTi8NEXGYhsePi/xH3FK/NNAAA2bD59fkg0I291DCiXwAiuVn08pH0DzUdXYSD6TPP8+UvS5jKZ7DUHAACJXFJlv0djXyzJL1yr+dikfgvV3d5xAKLr7z+nbPpwo98DAADblij7VfRbLskvXKm5y+FrdHtwJID4pofPlznZnEWpAQAAW3f5fEowITcTL5bkF67T3OVRhHajAyawhKetJVJlv4fG+AMAsHWnBA/iKfotluQXrpJL8Lvb7UW/qUyGgG2ZT8l6PtwYfQAATMgf/lp8Aw5Fv6WS/MI18gl+d7u9hg+JSH7Z4FQzUfbb6mkOAAC78f5x4efwWgFioRw4uOYLdJfTfkM3IhFgIVOCMoOdTd4AAOCr89LzcUW/hZL8wvtVH/LKIG61wHwlAwVXG++/JKh3r0w4AQDgqRZj4bLfvQSxTI4bvF92SeudarjXMU4QQP/Xafk/ejBxAQCA3XPZ77jkn/OUcZksoODdDl1u76j64KgAi5lPn5dv+WAzSwAAeDb9dV7wr9laqEySX3ivJsNN5lsPQgNLzjUX31li17aGHQAAnj1+WW46Xin6LZLkF94ry8Kzow62wJLOn/uF/+KNQQcAgK/6++U6Pkh+iyT5hXfKNGP1IDSwqPnLwmW/jRknAAD8bbxfrAFbK0MskaMG7/zuZNpXodHvAVjWwjtL7FzlAADgH/P9Zak/pdNviSS/8D7Z1tYeKgcHWNT012nRqYuiXwAA+NfDUrNx8/ASSX7hXfLdY6jSAxNY2ul+yY4Pin4BAOCb2fjDMn+n6ox1eSS/8C4ZBw97X2tgacOSHR8U/QIAwDcuC0W/kt8CiYjgPfIt+VUOB6QwLddezFUOAAC+s1D0u9ddsjySX3iPrGMHRb/A8uaHx+UmL4p+AQDgGwtFv4p+yyMhgnfIuuTXfptAEucvizX7VfQLAADfWib6lfyWR/IL77D39gB+1C+2z5uiXwAA+M7lvMAf6bR7KI7kF96u2nt/AD8Z75fa503RLwAAfOdxiY03FP0WR/ILK7zUuRYDSSwW/datwQYAgG89LDAXNw0vjuQX3i7/5NcDGEAS81LRr6JfAAD43v0U/U+oMyuO5BferMr/UudiDKSxVPTbNsYaAAC+m4t/if4nKkW/pZH8wpt13iLAr6abC0W/B0MNAADfGR+j/wlpQ2kkv/BmBfzE5VoMpLJQ9LvX1QYAAL537mP/BTW/pZH8wiovdC7GQCoLRb+KfgEA4AcPsVv9NoLEwjhg8OZvTQlfG8kvkMy8wNYSu93eQAMAwA9T8YfYf0HaUBjJL7xV400C/Ha++WVeYAajrQ0AAPxgOEf+A5Lfwkh+4a0kvwC/N94vEP0q+gUAgB+dIj9/J/ktjOQXVnmZ89UGUlpgV+Fd50IHAAA/mCPPxGuz8LI4XvBWZewnr+gXSOlyiv83FP0CAMCP+j7u6yv6LYvkF96qjEy1cqCAlE599D8h+QUAgJ9ELvpVZ1YWyS+sk2sxkNbDGH0Oo9wAAAB+NMV9/M4kvCySX1jnRU7NL5DW/BB9lzdFvwAA8JNz1Im4OrOySH4BgAji7/LW+Y0LAAB+NJ+jvryi36JIfgGAGC6XyH+g6gwyAAD86DzFfHVFv0WR/AIAUTxOkf+A5BcAAH4St+hX8lsUyS8AEGfG+SXyH9DuAQAAfnaJ2elXlFgUhwsAiGM8Rf4Din4BAOAnUYt+9fktiuQXAIjkNMZ9fckvAAD8LGq7B1liSRwtACCWh7gvr90DAAD8bI652bIssSSOFgAQy3iO+/qKfgEA4GfaPfCV5BcAiOY0RX15yS8AAPxsjNh2TZZYEkcLAIhmfoz68pJfAAB4QcSiX1liSRwtACCefoj68qJfAAB4YRoe76Ubo1sQyS8AEJGiXwAAWFrEPd7sslwSyS8AENEYc19h20sAAMBLFP2yk/wCAJGd5pgTGdNOAAD4WR9vFq7otyCSXwAgpukc89UV/QIAwAviFf0qviiI5BcAiOocs+hXo18AAHhBvORXzW9BJL8AQFRzzKJfNb8AAPCCIdorS34LIvkFAOJS9AsAAAubo0W/uj0URPILAESedCr6BQCAhfWGAMkvABBbzKJfyS8AALwgWs2vMLEgDhYAENkcsd6g0WYMAAB+NsYqvxAmFsTBAgBiO0V8bUW/AADwgsEQIPkFAGKbYhb9Gl4AAPjZaAiQ/AIA0UXc403NLwAAvCBaza/ai3JIfgGA+LPOKdpLS34BAOClOXisF7bTRjkkvwBAfIp+AQBgWdo9IPkFAOK7xHtpD5sBAMALJkOweZJfACC+OV70q+YXAABeoOYXyS8AsIA+2iur+QUAgBcMhmDzJL8AwAL6aM+a1XaYAACAn8WagXvorhySXwBgCYp+AQBgSfr8IvkFAJag0S8AACxKo9/Nk/wCAItMO6OVHKj5BQCAF8yGYOskvwDAIqK1e5D8AgDAC2zxtnmSXwBgEdHaPZjNAAAAWCsBAInEa/eg0S8AALwwAzcEWyf5BQCWEe1hM9MZAAD4mT6/m2epBAAsI1qjX9MZAAD4meR38yyVAIBlREt+dXsAAICf6faweZJfAGAhsdo9mM4AAMBiBMrlsFQCABYSq+jXdAYAABajiUQ5LJUAgIVE2+JNuwcAAFhwAk4hJL8AwELGWNUBlbEFAAD4geQXAFhKrJqDxtACAAD8QPILACzFFm8AAABLsVICAJYSaxdg8xkAAFiKHd7KYaUEACxFzS8AACxnivKqo4EthpUSALCYSNGv+QwAAPxsMgQbZ6UEACxGuwcAAICFWCgBAIuR/AIAQNkUEhfEQgkAWIzkFwAAyib5LYiFEgCwGMkvAADAQiyUAIDlDIYAAABKNhuCckh+AYDlRHo0rDWyAACwiNEQlEPyCwAsR1MwAABYigKJrZP8AgDLidTtwYQGAACWoea3IBZKAMByItX8mtAAAMAy9PktiIUSALAc3R4AAMCUnmVIfgGABUVq99AYWQAAWILktyCSXwCgfJUhAACABQh+SyL5BQAWNBgCAABYRown4yS/JZH8AgALirQfhBkNAAD8KMaTcZLfkrSGAABYzhjnZSW/v9JUu139PDz1rwZpfI7jh3//E8B6VM3fl78Xr4Hz+M9V0BMpAK8m+S2J5BcAYFWq5inhaKpfZ72/mw4OT/+aRykwULC6rppd+xz7/l73zX8e592wm6Z5NH7AiuaFMV7UdbIkkl8AYEGqquJpqnbXVPWV9c/tv/PDp/xjHidVHUBRF8Kqeed1sPn38jfsBlc/YCWXxRgvqj6gJJJfAKB82+728JxzNMFLOur6azXcNI2TCATIXFM3bRUo4Wi/rpPHaRwnlW3rnj7U//3g+Xwf/fdu9/TkyzTtlIDDS5RyFLVSMAQAwILGKJUHW01+26Zu6tgfvq6fJ4zDNA1aQABZXgqbOsbCtmm654vfOAo5Vqeu27p+4Qb67//rvzPKEzAUfrJHeE1fh7JukoYAAFiQ6DDQNL5p2nrRwPt51jiPwzia7gPZXAvbpom8pv1a/vt08TPc2zxp/nkCxg+gFHrGR3hNU8GiSH4BAMqawTdN21Rp/nbVts/xr8UvkFzTNu1SP4A1zf752qf4t/iTpm3fewN9Dk+mpzugcaQkMaaMLoVFkfwCAEsaTD6umro1bZO8tcVz/DuOw6DiA0ikbtt26Yvh87VvGHq5X6Gqru2uzsDqutvNQ+8GSDli9FlzGSxr+WAIAIDyM4BNTNvaNqOZ21MB3DRIf4HldW2X7Krftke5X5HzhG4fLP+qum43XnonAWWIUfPr7C9rCWEIAIDyV3Srn7Jllfr+O+z7p/S3H3R+AJZSdV2X/i3sxuGi5q2gSULA2Pdvzc3NcLkYWgqg5nfzJL8AwJIUCbx9xt52Gc/YntLfsff0M7DEBSd8gPfeC3NzmIa+d0hKsI/0Y0HbTpqdUsB1M8JrOvPLIvkFAJYk+X2Tqu3a/Auam+YoAgEiyyf2/fv97Pdz78qX/Wlz7CqjwKa/AxFe0+/9ZZH8AgBkOlfv2q6Y97rfz0Pfr6zvQ/chwmrpry2dw/9fqBfqv6x7oD6E/aqfH9c3RNU+r9j333c1Xzba9qG9C/yC/y/Gu9zvJR5snWYPuA4CAGQot+q2P3tqfdmvK/yNUczXVBtqixwuzmyN1Fusr/novsv2Z7DqcJjO9vrK9K50rI0CJpQRXlO3h7JIfgEActPsuzKXq0/h72VFDz/3EdKmbkNbAoUbvqpd9TIz8JpsXlk1VrPf5/24fn1zs6oL30pUh4M2DxCl5nf2Y9emZxkAAL+lSuCPyqv2/U7Xzf15LcFTjOS3lfy+66Ukv284b9c0NlV3KOGC2HXT5SILyenEkfvCVxEuoSbz255lAABwzWK1jJTj959hv1/Lw88x1jbdds7mJmDwsu5VS+CTYkXJb33YlxLf1cdjfxaH5HIbkvvCP9emCN8FbX4LI/kFAMhFt19JLLiWh5+nMXwOXzWbWTHtA77WqvsjV4FPs9XEj+2xrNVq102nDdX053ztuZH7wj+3zwiv6Ueu0u6mhgAAIAf1oVvTXjTrePi5j7BiajeT/Ab9HWPN/ZFDN3tYSUi+L3B3rvr25nze0CaOmX6hbu3rBv+S/CL5BQDIwX6/umlZfTxeLoWvDvpj+Nfszhs5p+ug6cua+yMHLvVfxZK82Kf1q+NB9pv2wnMr44Bv757hX1Lw6ySA32qq61u+zeOssQwAq1qp7lfaknC/H89FB3bjFL52bDPz786wpflsK+izUlB7359Vx+PlZLO3VI5HYwDfilDz2xvVbU8z4HdnW9s0wVZP4zQM4l8A1nGH3O/X++Ga2+Ol5AK4/hD+NbuNrJnCntb1evsjhy2O3o3Fh471sfRL4n4v+010O9XoAX6YhkX4GU3Nb3GXRkPAMhO4tgtb99E03W4e+t6zVACUHhEcmnV/wPp4OJfb8HeIkPy220h+Q29btt7+yJo9/HDFWMNPYftOz4cEF53jwSDA9yLMMT2BXRzJL8tMfaLsVF513a7vbaALQMHr1MN+AwVKJT/83M/hq2W6x02c3KFnf+1q+yMHXpGVPTdeR+6r32+ab5KCX4h9h9lp9uAsgJfmb1H7dHXdzfniYSoA3CPzVu7Dz0P4n6/rehNTly7z11vriqzoYqxi93V78cMc9yclKkuOt4JfiH2H+ToxMqrOAvh+bRP9d3ubKADgHlmAUrPfPkLg2G4iDgo+cGvtjxy4CWPJo3Rc2VaX9e3hUUSy1Pfog4JfeOEyFOGLoea3OJJfoqpuFlnT7vfnk4epAChrLr6t3HdXbPYbY4HTbSH5DZ+Yr7U/cpf/GbvQFeK4vuiuuesfVags4Xg0BrDIvXg3il6KI/kl6h14sd/tD/vT2XgDUIwN5r67Qjc9msfwu6NsYgbeGbY0n6vUGtP2uM4D3LXnk1tebNUHuQYsdefUxcZpAP9pbhfcq7y66R5tMQlAGTaa+35txFjcb7WXm/DD0Gxg0hI++W3W2R+5Crsg68ssxlrxRbE67h+0fIir/VAZBFjoXqzZQ4kXSUNALEs/ctN+fFT2C0AJOcDNftOf/vBY1qKhD5/87rr1J79NhCRmnf2RlfyusMHv9+o7jemiOtwYA/jFdCP8S4462Gx+pgH/rusSPHJz0z6YVAGQ+x3ycNh4cVL9YSjqOZ1pCt98dANT8Bg/b0h+X6HEYqz2du17cx32D6rkot1UN/1jKvxehOTXMwxmGvC35i7Fqrb7+EXHB14zQzQEQDL7G9egXfuxqAq4/hB+BKrV/1jdFfKaa1uPFViMtYngrvrQq1CJo/7QGARY8L7pQesSL5SGgCjL2o9plrX1XWfw+TMTRFifUsKO9tOt4PfJ4VNBWU+MWr3VV1/UMVYZ1Rpv4HXYD1VeMdb+0zYqNrtPlilRZvUfzevh1xee8JNOzR6KnGoYAmIs525T/eXqg6d9ALaojGlofXdn6vXPHfv2rpjl+hChVG/1GVCcD7jGwDzwZyqtIUZ9t5lfw6oPfvgLb39nUGHRe/HFqJpqwJPblOnrrWsRQNa2W51THY4O/7ez0I+ncyFPP/fhZzarn4PHmQx2K3zINOypMBfW+Oxw3FJut281pgt9AtnbDX5714wwJTKqm59qwC518Cv6BcjcZstzuhv1vj847h/KeDR9CD+1qet1Py4ZqS/DGpcuYdflZS3J69uNLUbrj6eTK/96lp2Q/Q0m/KR70OyhyLuPISC0Q+o7sCkAAPlNue4+mHW9MCpl7HcXI01bebuHrrDXTaepsj9X4y0aPm6vCumoOYFVHywmwldElV2ZE25DQOirS/pnbkwCADYn9ydoj588Z/WiMqKfOUJp8spPiFgJ7fqGLfAnKmiDt1J++Al9wN0MQqnurPng91+S8PfiWbOHIkl+CT2buc3gTdzY4hUg32lolFfNu19s+1GH31/ORYtIfyIsdCS/Wb1uwqtD2DN1LucU+bjRBLS6O7jwhxlIGTr8XoQfRwq6y/DtbNsQEPaM+pDFROCD56gAcrW9H+eqmzu/SP5GCWW/EZLfatWhRbSAtq4N1e8UU/Jb3W54tn5jpRLiFHJjhT9OsMK/pGYPZZL8ElYmE5k8AmgAeCr4VeD1h7v2XfYl0VOEdiKrbvQb78OtLTAP/HlKeQy32fZz+p3Q8mqCX/jzDSZ83DcNhrXMqbYhIKRs2iy0HqsF2JRsZ6LVzZ3Z1h8dP9bbO8HU/Gb2ymsYqbGQPdcPHzee2jUaFVx7axX8wp8vteFf8mRUy2QtQtA1TD5VTUezAYBM7xXb+rQKfl+l+Zh5oBfh8cZmxQ98R/xsan5/p4xirOrDzW7rbE527fhZ6sGf1PZ349+TwRAQ8B58m9GbuXU8AEjtqOD3tXOID7dZB6FjhC1NVtzuIWKoVa0r8An8cYpowJj97zwLLVWsVa743gh+4RVz0PAvaX+3UlmOENAhp/OpUWQFkOeKLcqrjjl+1Oaj3kOvt887JY9Q5rLi8veu0NdeXtiTYB590wu65Nnn7d3TCMEv/Fkd4UdYzR6KPRsMAeHOprzWt0ezKYAcxVmw5ViEcLA4fduZkXUloOT3LVPCmCuMdQ1bl/tZGtztrRn6Pwf/zlC8z417K/xZhOC3nwxrqRMzQ0C4m3Beb6fSQgyAhLehDzdW9W8dsoxrpCM0UK1Xm15EjfDbVX2vwubY+Se/1Uftbf/T+HXwXW6dRPCKy22ER6DPhrVUkl/CTV1zq9TZO70BMrxbRHnV/PY10sryPY75Pv48K/p9vbjn/pqGLXB1dPYbvDWfRJ3fjYfo9x1uBL/wCofwE6phMKzFTjcMAcFWa94RAPw94f5ojvUeXb5BiOT31aq4H2xNwxa42UPuW+/stTf48bsi+n37WWQvF3iFGJ04L4a13PPBEBBIk988XNEvQIa3iyivmlnjseqDjkPvPT/ucs31IlS6rLUsvCv65RfV5n6OBnXU4vfnm8VdaxDe9p25NQbwmgtuhLm25LdckjFCOXhPALxinRvlVfNKfps7nR7ef4LcZfok7zSGf82VnieRP1a9ovXLltr8Vreexivpipep5oMxgNfcKSNcWU6GteATwhCQ77XlanuVBQC5iVPflFXy23l+9yq3mZZ0afeQy8daT2DeBJ2pjllvui7h/OUVz8C84TT6YHUHr7qwRJhqK/ktmOSXNU/CKzVXANldmqO8ak6Jx9HK9Er7PEdQ8vvaOWHsw7eeYQs7Uc262UPz0Q9ivyL6fb0P0gt41X0ywo1SyW/JXDsJJM/GCiZSANmt/6O8aj4bG1UfPNF8tS7LfaAiVFQ2q5yJR//dfT3Jb9hPknM5VnNn1flrot/XutEVGV53VQn/kkp+i7ate/DogMebz+V5KrVmmQCbmHlkc4vX4jfQMOZYHxihpHKVMUb0D1WtZdjCfpA545XO/s6TEL8j+n3leWQPF3iVY4TZtpJf669SDL0DHu9GnOn7sv4G2MLMI5uS30aL3xUPpHYPrzt28ZcXaxm2zezvtr8V/P7erVrW11xbbowBvGquHeHps1HJr/VXKR4c7+1NwSW/AFu4X+RS67b/KN8IpMow+o2QrK1xnrJANcBahm0rye/xdscffPCj4Z/vCnrow+vEuOY+GtaibSn5PU2Od7wTKdfZih/QAbYw88jkFi/fCLnI/5jf80Tho7VqhXHPAnOvpjJUP8t2g7dbvc9fcSnwvMifTyRd/OBVDhHuw8NgXK2/wq7dYj2wOWpMUvYkf3XvDMDMI9zsIY9lqXwj7HhmF/1q9/Car/gSAVZrqH4+O2df5JKJfv/k4FFOeN29JcZsVMmv9VfotVusgFavh5jynapIfgE2cFnOodtDdSffCCy7xEi7h1w+0TqGbRslv4Lf195CNEP+/WrTT6vwOjH6olxG41q2DJ+ZOMdpUvXoXC1vIb/udwawybVbnJfNoOa3unPHCS63zGgOP5tsVxf2LBLKruPLtoU2v9UHwe+rb493ot/f3Q6MDrzKMcJUe/b8fOly7JbzEGP51p8d7AJX8qt+ZwDuF8Gk/3m38aRulLV+ZqlRhJ2t1/aDQbXIB6pX0fAzaEg+ZbmhSXXnCf033EZ0iv+1G7dYeN2sIkZ5/NmWWaXLcdo0f4mwItTrocSFfJAZp9+HAVZ/w0g/IRX8RpJZ9Bvhgfq1Jb/dqv5M3KtG0DlqliW/ete+8bQW/f7yQnkwBvCqy+6HGNNsJb/Fy/IH8/Ax7fwwO9ZRLzA5T6sdHoCMVm9RXjV58usp3Wjyin7H8Kfa2koiF/o8awjM19/sQfD7Vnu9MX5xKsnE4XViNPm1ZdYK5Pmo1CX0s3RfNPnd7vS7dngA8hEnB0i9tZHgN6K8ot/w8Vq9sonKQnPCzlB9b85wgzfB7zuud7pjvOhoQQevchPjJtwPBrZ4mV5EH8JGvw9OVec4ABmIlAol/oF3/1HwG1FW0a92D3/QLfVdWMGwBc34Miz5Ffy+63pn0F76uuv1AK+bkMb4rsxKflcg11TsIeQa7uHiQEdmjsKGeaQA3rJ8i/Oyabs97D2GGldO0W8fvn/Yumr8utX9oUKuhvmVuQh+3zdst35IfGFQjAG8RnMT41VPOqdagcVzH26yIPhd4H6c8XtT80tk7oXwljlpnJdN+gtMKcHvz8lQVUowczPm8xtbHzyGXlfNb7u6PxRN2Ow6v5rfmxyvL9MPPxNm2Gyl+XBvqvADvR7gVeoovceGs5E1PYtnDhb9Cn63fgE0BAArn3ckrXbLOPidx904P43O9Jui6Kfko30KgZt8f8at7u6ziX6H4Mlv1a6oK1mz2LSrqUr/4TXo1XDIbjQyKtWfpmmax6cL4q+ugXW9a7NZFrc3j+YK34+IXg/wqulElN3d9HqwAou8Wrn/EOTNCX4BIBORwsWUzR6yDH7HeZjH+XVh6VMq/HfyWNd13VQ5zg0zin4jlFauKfldMO3rCp/ihy25z67kN4/gd5im4Y9Xwv9+GWurpqnTlyofhn7HN24MAbxqqhTl8nWaDO0aZPyk1HwfYMow32vBCQCZiNSaM+G9Prfgd5zGYXrvJP3vf7Cu27rJ7EHt6vY+k5rGeQg+ee5OVhbv+VOFJ7/rbvaQPvgdxmF6661heB7Htm7atBfA278kLd84aBgNr7pyRPmq6PVgfhbfw3S8dv3zxX0TAFY+7UiX/OYU/E7DOAYpHp2mp5dpmtTpx3eau1yi3z74WVx+34J/LVkvWXqj36Dvf8psxXNIGvzOwzBccVd4voy2bZvuDKs+3NtE4r+rytEYwCvcRqmu0OvBEmwJp/G63U0vj+6aAJCLWI0Ekj0s3+QS/A7jELrP5/Omam3b5tL+t7n9kscb6cM/edyu5tnubsG/VTdlP9gX9GqY2Rm0T/h4/jD0Y5CX2e3aLtWvX82NsOVfx8oYwJ9FetJCr4e1yPzn8v7+ipr1+VGLXwBY/awjXfB7l8OojkO8ppBP6UfTdllMF7vbPLKQaQq+iVkn+X3X9aTo5LcOehrldQYlexZi7oc+4E9gw7Cr265LMoS9Vr//fM/3xgD+LFLw2+v1YA220Grm/vjezTyHB79PAEBGVtbmt7lLXooUOOh4eXjH865ruzr56bMf8vhJvw++z3y7lm/4stsDdkUvSINeDeesNgls0lT8zn2EtHS6XKouRfir1e8/bO8Gr7lkxAl+9XpYj+ynmvNjf1u/659T8AsAW5h1JEp+kwe/U98vlff0/WPT7lO3/b2dsyiDuwRPfut6JSHPsgFZ2YH5eps9pLky9pdYgzA/hb+LbzJWffjLlOHJ3vZu8OcLxk2k2vgvmqdagy1n+Ovw9r7u55OTFACy0kQqG01T7lbdJg1+p/6ybOI9jue6S7wIv73P4fn+cQ5+5LuVPE65cGlk0V0ygq7Bcir5rT4sf2WczpeoK7/5cqkP+2U/V3M8mTQ8BVrGAP74PbmLNDk7DQZ3NUr4tXw+XY5v+xHjohE1AOQmUkVCml3to82zXzU16s8pItDpfK4PKds+VLdZ7HjfBz+T25UkvwuvK0reGa8NGiNmNBDV3eJXiMtlgXBiejx1x0U/2nGQuex2h0h5+zzO426cf5w/tF//tw3chxvKnJAOfn9akTKek5oezsfXVxHIfQEgQ6tq8/shXfDb9+k6Wk2Pj+0+3YY7zYf7DE7k8Mlvt5Jv+MLFniW3ewhb8pvRo443C18Z5/NloYXffLm0xyXPudu/PMJaHcK/5jBO4/iLoR3+q6Cvmrpuar0myF+0DjvzF4O7IqVMmcYv9fFV08nlbv8AwFvmpmtq9nCbagY1XVJPdIbhcX9IVQ/V3jymP5MjnHHtKqr7lg6wm4L7I6+1ze/Nsr8LTadFfwYb7uvjch+wPj7utu4mbKI1DePw2t+K/942sWmapt1BxnfeaL3HNPldlXIuZNPDK5rrx2vuDwBcJdaCOUVmdkxU9jpcctjAdj6f20OiMtXDmH4E5j74h+9Wkfwuvqxoi93PuVpp8rs/LPnXFs59vy5IT8td/Q/91vs91CHHuh/6d/xUND4lxW3bSn/J1CFaL+xHDWdWpaSL2FNz/a775Tuehn7wswQAZCpSVDgn6PawPyYZwct5zOVgDsPiGx797WZMPwhD8HN5FalCs3gleLnJb9ADPmVT+tzcLvjHEuS+u69NCG+W+r5uvt9DsDvt3PfX/D7y1HK57Tq9f8lOFe85i8vZ8K5KYRPN6XzetW3z08xyGMdBkwcAyNeKmj0sGm/8u3K9nLOa6kyPp8MhQfabwy5vffASm6ZaQcKzfCF8uf2R11nyW90teAE6JYv9x/t2oW7GW+/3EKrkN8hTwcPwWHd7fX/Ja2Z9G+2UHHWbWZkCSwye9zltqn923Py6LycAkLVYTwEvn/zWd8uP3nw+ZzfbmU/nFNlvc/OQ+pNPY/C1Vncp/yu+/KqiasZCxypoZp1L8lvdLXY5mM9Jt5wf/trfLPJZN97vIUjJ73S+hLp5TudzfVD5S0Z3kmgtfnfzvYhtZUp9uGx06ACgqAlqpNddPPWoPiyeduaY++6SZb/7IXlKOgRPftvyk986QTVcW+iKoA4ZHs25hIM3i50B51PqC+KlPy7S0njT/R5ClPz257Bfj+nxsdt3O8hAxE4Pgt8V0qwcAIgvVlPY5Vtc3iwdcOWa++5SZb/pW/1egoc+K4gSUnyErtA+hKts9nBYqt3H8JBB45v5sV/iVlAfTrvNur7k93KKcKr0fZ1qj1f4RsROD7vdo0LL1ZH8AgDxxVooLV7utviSL8raNZz5dL5ZeEjSt/odp9AP/Jbbt+BfKZLfttD+yEEXYJmU/DY3y/yd+SGTqHv467jAVp/HfrMBzLUlv/F+M50eHpN0uYdvrw0xrz8PFwO8OpLfjI5FXTfVrrniNjLOu3EeJnvdAZDdGi7WjGPpEKA7Lvv3sihv+8P6esG97r9K3+p3CB52t6XnO1WSRUXbFzlYK2zzu9TubukbPfzn1N/GL/u9ud/qrOHKe+0p5rMy8+m8TLsP+MU0KOrF5yL4XSHJbx6Tpa5tAnx5m68HdB6HXn0+ACtaw/3awvVu9e2if256KGJ/n/G+u1l015t9nzjt6oMnv6X2LfjvA6RZyRSZ/DYhywWHPJLQZdqfZ3ZFHO/jx3/tfqMZzHUlv9GflZkfzzf6/ZJsTh21COHyYIRXSPKbwX2t24f9yaZq2+Pc972hBSATVawV0sKpx7K7uyXev/4t+uGwaDH07ee0cVf4SVbxU/I0IUj3uPn1Vx4T/mXK/nMq+P16jX4cbmPfE276be60dE2mPizRpHT60t7WO0hwC4l75o2C33WeNoYgsf0+yjGo9vv5ctb3AYA87naxFscLpx6L7u7WPxZ0H59P/ZItH6oPiR+B7oMHnV3hP9mnWVPUdYmT3fU1e+iWePI9y0cg+r8+RL4rVMfH3QZV7y/5nR8XKpMe/jocd7D0dyPy3grjvTFeJclv2u9tzO7w1eEwnAaDDEB60WKBZVOP/YJbmWWzj9HrFwuH43IV0e0hbXeE8MlvW3by2yXa76gt8VH4kOuvLPb3WKQLTv+QZe3r9Ndt5PvCYZO1PO9fIy9YGT6f+g/KflnWMfLuguP9bJBXSfKbUBV9V9D2TvYLQHr7WGujcdEV8VKb1+9yfKz5Ne+5v11uYnnsk6Yh4adXhc/JU7397rLxscriB4Pb+Ln/YnWcb/cwRA6+b7dYgvfeOH3hyvDxr5sdLPjFOEb+rUHwu1qS33Ri/17z9QDfLdLoCAB+I1rJ76JLvOp2sbLGQnZ2++lt3x+Pyx2NpGnINIZ+xLupiy7sS7XXUbv1scoh+T3GPwrjQ8brmct4F/Xe0LbbK+R578/Fi/9mOmuJyoI3vOgXW8Hvenk+Idn39tNCj0S2H28qww1AyntetD6Ii1aBHRdr8tv/VepC//TXYvlMe0j6ScOfekWXYzSplhRVU95ghTzScwaXijb+7z2X+6wLWcbIb+92tznvu7zP949iK9Y7l767E/yyzUlmwarbBUsjDvuH3pADkEy0XGBaMg3olkoa55Jv2+P9zVLNkNP2ewgfuJXYt+C/N5/uLxf3bFvQsDqDa0UVP5d8PGd+TMf7u5g/QdT7ki8O79G8aziHL1IrVqtd4uEKwe+KqflN88X9uOgEufqg7BeAdHe9aLPVJVOPeqmyq/Gvon+vnR+W2oepSloIF77FdNHlGOmS33bbY5VBye9t7OXkfH/O/qDO91Ev25tbyb3rd9aT1Ir1TqTj1/sKftd+DhmCBJZrgvfv7bN90O0XgES3vWivvGQd1FJNfs+PpR/vy3i7zBP47SFlINSHrgGvmnLnanW6ngttVdpSdWUbvHWxU//xSwkdsOcvtxGfdqgOp01NGqr9e46Abc1Zq+j7un291gp+V03Nb4J72e1x+T/a3An5AUgiXsnvks0eDsvcR+cvj+Uf8fF+oTjqmLIQLkK7h3IPecq3XtwMN+QbHpIv1KOX3vf3hWx9+BDzl8jDtop+3xH8jn8Jflmn+vi/W8Ev159IhmDxCdLdfkN/FoDNixcMLFju1tws8mcK7/Twj/nLMgVqSfs99MHXSAX/SJ/yrZcWmNchV1/prxcfIkeSl3Jat8aMfqvDbkve/mkvpfxAAG+8w334tMyP3ILftVMIurTmNtXzcLf1yfADsLR9vF+ZF2z2sEzEeFnNvuSnaZHGlF2bsMxrCB05lte34B+Vmt83nLQhXyx58hv7YYiHkrY2e9jFq7M5XjaUbLZvnjWcrHJZo3q/X6pQ8/JguNd+NhmCZTV36RqhHW+NPwALq+K1OBqXa/ZwXOTu/fiwnoqLyzLVI7cJn4EOH7oVW5CRtOy2Lmw1E/IoT6nTwDpyC7uigt+4b/e42443B+gPgl9WOH3ef/x0FPyy+SlmoZq7lF2a9jtfaQCWdVhDyW+zxKJ7fujXdODHvz4sEJfXCTc+Cn+4ulLPgLTrie682cFKfsLE/emlvD27Ilb97k+bKfp96/5u9nZjhd+CrlvyJ9XCfmTjXRNmQ7DoV/g2bXv+vV6/ACw70YjYnXC51GOJh2bm+35dh366X6Im+5huKjsHTxvU/G5g2NqQa4HU14y4vR7m+/ICvcd4V73tFP3u13+ewO9nzh/+d7vgfXX+IvjdwmllCBZUJWz18PfSVfQLwJIidnvtF6uAWqLXw/h5XNuxXybLvkn3AYN/vLrQeXmXtrChsOQ35FcsceJVRQ0j5/sCr4kR3/R+M8v2/frPE/j1PeLm46ebRX9OXV3hAS9PMQ3BksvfxlsAYFMz2Iiz18VKFOoFaq1WuanyImUkXbrcL0K7h0K/5mn/fNVudbBSr9ajPstYaKA3x7uUb6Xot2k2cJ7Aiyf/4cP/7g4L5zUrLDwgw6nathwzKLit7j7PjgQAC911IrZJmBdLPRbo9bDWvTVi7nX/7+H5nOrTTVPoCor2XORhTh1YtwU97B00pk78uaO2oSw20JvvY+3q0lXbWMTtN3GewI83sqZtUzw/Y2+3zZxhhmC5sc7il9rqw71DAcAyYjZhXazk9xB/srTeifcC0W99SBaX9qG7WJc5L2+u+ZpPU3P1Wrc7lTNYQQ9x2prfKmanlYIDvfHhQ6QBP5x2W9Bt4zyB/26iTdOkuv3b220zJL/LTY9uMznkh7ODAcAik9mI27vtlrqbVfF/uF1zxcUC0e/xkqoSLnjyW7UlblV0VeXn5XRz9Sg2BdVCBi35TfuxY/6wV3Sg158i3TQO5y0U/Xb1Rs4T2O2qpqmbhInc9MVXaDMkv4u5zaWn8s3gCw7AIre+iK89LLW/2030p+/W/ahd/Og3XSXcMIc+ObaX/O52AcKstt/KYH0n7aeO+cNe4YHeqYnTB2MbRb/dZs4TNq2tmrpu0m6Puhu+6AO6oVPOECw10vls2nGj3wMACzjG3KViqefT2uglq6eVL+bjR7/Hy5Tos/WhP1pX4MlQX/U9D5LcdMUkv3XIQpC0nzpir4fiA72Huzg3v73kd1XnCdtTNbu6rppMQrjTyRHZEMnvUm4zOuh77VwAiH+7idkmYVrqVnYT+w88rr4J0wLRb6qq6SH0J2sK3MPputqGOUT2W856JuQ7naaUn2QfcdCLf/54foizy1u9gTVc9/qRE/wS7KsV8yby/NpPv/rVdVYfWqeHra3KDMEyjjl90W96df0ARBa3v/1S699DE/kPXDbQff+hjjzf3J8SZWDhiy678pKd6w7uGKLbQ92Mmxis2GffW67vEX8Teyix58kPp/VjnPvfYQPJ7+vPE7EVwSYR++195v5BIrQttSFYZnp08G4A2JS4/e0Xykujb++27h6//4heWJLqyao5ePhWXk1GdW3N76aGbTVtfo/x2lOuYqv5S5yj06y/aOvVX5FHz7DC+2+9X7T43RrJ7zIOlbcDwJbso/a3vyw0Y429vds2gt/dfB+5JrdNlYcEL04sL9i57os+hhnDUoYt5HY+c8rK2DpeFcl5HYHeQ5xr3torE9tXL1K38LgMRJu7/NUbhK2R/C4ityJbRb8AxNXE7Y+70K4UTeRl9kaC36fqkshR/THRBwu+dqqb0o7tdaFroPOi28RgRT733iJelf3lcSXXvDgX9/3K1+53r505DFu5eUKEy9Pj/WQUNkfyu4jsamwV/QIQU/Uh6o1mWGjOGnl7tw2tXcf7uK+fquh3Ct7Horii3+tC16e61Wk7wxYyoU5Z8hvv+zauJPjd7YY4NakbbEf64nnyxRjAey9Of6mY3yLJ7yKyK7GtTBsAiChuk9+lSn4jx4mbWruOkVPuVEW/m2/30F33G88UKPktpOh3LTW/0Up+5/v1tJ6Ms++k5zafzxN7U8F7vz1fFPxuk+R3Cfv8KmxNGwCI5xg3hxkWqnaLu2/YdL+ptWvkroypin6D9yTtCjuuV477FKjjQxmBedCS34SXj2gtB9YU/Ebq96B658nDaAzgfZOWzzr8bpTkd5H5UYYHvnVYAIh134tcgLnQDkBxOyrOW9tX+TFuXp+o6HcMfhQLi36vfLvD113ertYU0cdsJSW/VbQ2OI+rCvTi9HuQ/O52J9EVvG/Kcq9efrMkv0sMco4pq2kDAJFE3t1tNy2T/FZxs8Qvmyta+hL1AcNURb/BI4iyfptvrltKPH8JgqxDiwjMV5L8Rtsu5HzZrcopRsTSWr0Ppx3wdvPjX4NR2Cz3jgV03hQAG5pb3EUuv1to1XeIOkl62N70O3KVc6Ki340nv1fOJ8ddoJrfIoatasK91pSuUWMVq2fcsJrd3f655EXp97D5ln2z3d3gPc6f7ey26dWZIYgvy/LaSvQLQJQbzIfIwe9SJb9R19drK257lTFqsNM2ST5U8OS3KWpyHiL53UzNb5fzefd6x0hX+BUGen2MH/g2/9zmF0+rw9sNnx99dTZN8rvA0rHJ8m1p9AtAjLveXezb3lIlvzED7NUVt73OJWrenagUbtNFv/WV3/ZwNb+ZTrejHdl0yW8d64u2xi0vY1zot169c/K4Orz9Znt/PxmFbZP8xtd5WwBsxm3sAGYNJb/TVp9WjbqB0z7NrHbTye+1s8mvGc68kWEL+BbndOnXscSLQypjjIert130q8kvvH3S+aDBL5LfoqZ5QQ+9Yw9AcLfRf1hcQcnvvNmnVeP0vfxHmk6/wZdTJf02f+Ukd/zu/6x92EL28UhY8hspd+zX2YAyxiZvXbXbrrj3EFij6eHzxSgg/Vtgnud9AbARt9GrkdZQ8rvK4rbXidrqN00gMoU+mlU5M7QqRJvf3S7IM6j51/yGfIerK/lda6A3K/oN68ET6/C2OYrcl2eS3/gkvwBsRPzgd7dQPhCz5Pey5Un4OWJkVaXp9Lvhdg9hmj2ESX7zL/pdRZvfWCW/q30O4hwhqdxw8tv3O+D15L78e/s2BCVN8za6rgCgDAsEv8MytW4xM8TxcdMnyUPEhCdNIBI8iiin3cO1c8mQ3R7yn9gGfINDspw0UsnvebU9KOcI/YmazS7g9XqAt5D78h/J73aH2LEHIKgFgt8VdPmdH+ZNnyVTxKV7nST6HUMX9bXFtPG8MqOeQ3Z7yD75DXlY11byO654166Lot9wNn73hDcZ7uW+fHP/NgSbHWLHHoCQlgh++/JLfk/jxs+TmI/rpglEgp+UpTyWdW1j5X8GLsxXIvdCyFU0e4hU8rvqQC9Cqr3V5FevB3i1y1/3g1HgP9K/6BrvDID1q+6WWIwu1CghYsnvSnewf4uIKU+bZG6z2Ua/177Pf1elmyj6DdjEY0q1y1Wkkt91/xwWoei33uYiTq8HeO1N4vT5YTQMfHfjMATRl8LeGQDrv9vdLRG7nBcKPOKV/Fq67nbzY4lH7jf60FF2KY1+A23wto1Gv1XAsG5lJb9r7vWwU/QbcCD1eoBX3VsfPp8mw8D3JL8AwLWauyVqkOaFAoJ9vN9GtSl8qoEbSjx0v1tlhZ6elzE/v7a9wvxv4Bsm+c07MF9Ds4cqzhCvfc/LCEW/3W6DBg/MwCvurOfP99r78sLU0hBEnxZ7ZwCs/V63SPC7WMXPMdorn7UpfBKx8DlJLdxG2z0EK/kNlPxWWc9sAx7TOVXzxjhtcM6r70UZPrHcZLuHxx3wp+nIl/97VO7Li/cNQxCbbg8ArNz+4yK3lHGhip8u2uxoOjlZIo9DmnYPwU/BIg5juOR32sCwdRmfb69dORwKuxrk4hL+N8sNtns461oKf5glP37+or6AX2gNAQBwjZuF0ralKn7ifRy9Hv5Zw+9jpet1m6CAcB4DV+AVMT+/uuwwdM1v1sMWsoNHqhrZLsovfI/rvyrOl+A3le0t4We/m8LvTP1ZsS+/m4YYAgDg/aoPCwW/l4XyjibamrofnC5/L+LjpfhJauFC99SrSsh1rn2P8zd5b5hvRlutd7S+u5Ak+gxR2uAMW6hQC/+4SrO5Nfyj303hl6bzX591eeC3JL8AwBUL0I8LPWI9F1/yOz84Xf4RLwRPssdb8E9TQvJ77Rf/28Rv/UW/AS+TQ6IILE4bnE1cFac+5xOqCKMtq+DXLo+6ofAHkl8A4N32d0tNJZba3q2KVjSqZukb8fKeFInIOK3gQ7z1ixKuze8Wkt+Aby1VkWyU38RO26hSC1/0u7Xk1/Zu8Ls7TNfawoliZ0gAQN6q28WWn8NC27vFK/kd1Cx9YzrHGuhDinHuA3+apsr+Z4Kr1xARkt8u23ioCbgoT5T8RmmDM513mzBMoX8ibatN/ZI4aJUEv7sgPF2fx3mYx1GNAZFmbQDARjUflnt2aLFIJ1rJr14P3znFasvQNAkeegyd/O7a7LufXvujz3d10oEOWV3nWkEacMU1JfqMcUp+txJSnG+CfwE39VOikl/48+zn+U4zj+M0+qmEmPMQAGBLjsfl/tZpqTSvixVmn+y98Z35HOv02ScICYY5cI7drT75/X5hOoRZkrSXlY7WNxKdGVHa4GznQYhL8OS33VLye9HDFF57rX6u/53GcVD+y3c3DUMAALxdc9ss98fG01J/KVYPgq081fx6532kkD3JI/994Fws+xn61T0Fvw8wAyW/2dZBlt/mN8rDEKfdVsx96M5Im2r0e9oBb1HX3W43DePgVxNKmVcCABlasuB3wU4JdayZ0UntxQ/m022kY5iiXnYIHIzl27fgb9fmTvP3Nb8r3+ItYEo3J3qKN8ZvYv2Gnki+hE5qq2Y7ic7FEzPwnonE/qn5w6BNNjvJLwDwnvnDTbPkn1us10O0kl/bu72wmj/GKvpNkPwG/5Nd5kXiYZs97AItTHNNw8ov+Y3SBmdLzVv70A1hdt12kl8lv/Duu+JT84d+UPtLbQgAgLdNJG/uFg1+l+v1EO0JWivXBQclxWPQwSsxMy/OaK5dQvwQYM5jucd+2aOZqHgrxsBuq5LzUsIhyXTolPzCdVeLm4//u421rS6FkPwCAG+y/3RY9g8u1ush2v5uvWftFlzPVykikdClmJnHOm3o8RrWPGxVk++J9spPEKPN77Z+Dwue/DabiXH8cAoBLuK3/7s7CP82zMEHAN6gvbtdeMH5uNxDavtYH8F5s+SCfg3Jb+ZFv9d+U37aczxQ8ptnGhbwhBzmIo/3SzZWyTlO27pEOFEgu/n7zaePy/ZqIyOSXwDg9ROH27ull5vDcg1PYxWLWrkuOy4pkt9pXMGHeP114Nq1408FkKGq4rNMw8pv8xvjMY+tVXJu7MchJwpkqDl8/CT83egCzhAAAK9THT/tl/6b83K9HmKV/M5Kfpdd0idp97CpRr/Bmz2su9Fv8clvG2HFuLnfwy67LV0iAl5Z/XAKIdWHjx+1fdjigTcEAMBrVMdPx+X/6sOCy75Iye95dvK87BJpZFLEf6Fznay7eF47wNPP3+pAyXmOaVgTbr01pUnBdPkNIHi7h400+lXyC8FvSjefPuwNw8ZIfgGAV3jKfRMsNM8L1rg1cZ6Am8/Onl8e3jgvmyL5HecVfIjXXgyufW8vfKsDJb91hmub4kt+YxTRb7AFzpDxiZWv0faoEGOadPu/W10fNkXyCwD8eemfJvfdjUvW+yj5XVyksanWsMdbxrHO1W/tEm/4uhUOV7yT7JVjGuHav8FKTo1+33WPcJuEOBOl/cc7hb8bIvkFAP40XUiU++7mhyVT0ziZkZLf3w1OX9Kh/L1+BZ9hobf24nZ4gcYvwzQs3FuahyKP9wu2uOul5Pc9p/xlB8S6Od3+7ygP3MzRNgQAwO/Ux2RVAY/jgn+sjTP/VfL7O6c459YatnirmjHXo9bFGKohzEHLb23ThvvVLE3Jbx0j+d3i1a4PPJBNtf6bix9OIabqeLycR+OwicWcIQAAfq27+5Qs+D0vGg/EavbgHPqNKU6WVSVoXzdvpt3D1VFm/+r/5zsOfXbDFvANrabkd9hk81aNft9OyS/Envt+vFMNugWSXwDgl/OE46cP6WaE4+Oify5OnehFye9vRQrGU/xaMRRxQmbwxl7OyKdAz/+3axuub6Sp+d0X87XPnHYPbx+yaQdE1t591PB3Ays6QwAAvKj78CllB7D5ftlPG6eT8cl59FtDnJV9ikhkMzW/XZyB6vN4d6EFrD8fkvyMVIcvoJ/63RZNoS92zeqHTMkvLKG5/ST7XTvJLwDw0jzw5tOHtBnK/bIxR6SSXyVLfxCn+q9JMMWdxiJOyfRjO7zp//3mt1flNVwBA/w0eWlXypc+f0O+51aeNvoTASyvlv2u/hAbAgDgx/nB4ePHQ+JJwsPCe05ESn6dTGlGKEVqupGi3zbSOPUFH/pljuJamj3MW70savfg/gnZTvxvP+r3u+oDbAgAgO8mB4ePn26SP0Z6WXjNF6fZwzY3MnqTSCmQdg/RXJsE9nPc8cts2MIF0VOSBwgiNHvot9r8PPjtYO3tHiS/sKDmzl5vK+bYAgDfTPy6LovF5PCwiimRhesrxijKE4YpCj/HKWxJRVPn2Cvk6iTwl/FX32X8VX73cIU7JzR7KN08Br67rjz5tb8bLDwTvrucfO3WenANAQDwrGq7NpOngcYvS//FKEnhJPn9s2GKctK1Ccqth8Ahdpvj+ROr2UOwisi6Gdc0XK8YuKjC/zAzjrutCp38rnwlr8svLH7F35/Os2FYI8kvAPBc7NvmMyuYH5aeeMbZEUzw+xrnmxiv2iVIfvvAKVmX4wl07W8k4y8LiqZAuVg7rmi4vrkqJmkdE6HZw2ZLfsP/NlRXa45oZskvLO+4f/TVWyPJLwBsXtO2bZXTG7pfPLqJs6fx2bn1Cn2U5Fej3ziqa6PM36TZQ6DkN6fvXZvt2fU64R+G2HKeF77R75o7yfcqDyGB+sPwoOXD+hSQ/NZ1U13ZImucp2l07wCAn1RPqW9ub+ph+Zq9KGNwMfl4jamP0WqjSVENF/iTVE1+z8Vf/U35TVTVH4K8xS6j4WrC/aSWJuMLP5hbzvOmOfBPrO2qk183R0hzn/90OhmF1R3VzN9e24aYMD1/ynkYbbANAN/cH5sml76+33lc/hn3OspOOZo9vHKBHyWqa/vyP0mXX/J77SecfvORhkC5WEZxWMATIkkOVoVfK276sjgGHs81b/Gm2QMkc9w/SM7WtubL961VXdcFfr3dPPSeGwGApm6aps70zV0SPKsdZ3838+bXibPA7/ryP0mGE/Uu5hANYb6IXT7fvHBHcJhLPNwuiz8cxcBf6XrFYyX4hXTqu/NJbrYq2Sa/+y7GGuwp/b1crMMA2O6dv66bOus6ocvDWiZEuvy+0nzZl3JM//RJxrDfrTa7DZyubgj+24rPQDXTGa1vSm/zG34ot53nhV6FrrnmV/ILKR06Zb/rWv9l+a6qwyHePjP7/XRS+AvA5u747a6pCujvP6YIfuPU/Fq4vnqkYiS/dZ1gi5JL4N3q2txOomu/KfNv+1cEWmY29bSS4Up+OQl/Zdz2D2LB27est9GvZg+QlrLfta0D8xM1930+iW/n89lZDMDaVc3znb7d1eU8Ejrep/ircYJfeyO/eqjmGFO/NkFD0dAxzOqS399/nilQzXSbSy/ZcCutKcnlpA3+xRy3fVmcQ1/qmtUmv4JfSO3QPoxGYS3yS36j577Pf+R4eLTrCgDLqyPeeavm27t7W+T4jPdJfpqNMlgWrm8YqxhFvykehB6nsL+ydI95Hairu4P/4VsxSH6zupyE/01s6wuwUaNfN1AoRfPxUd+ytchuWdjdLHMDq24PjxqXALC0/d4Y/G5VnCb4jTIfmv3G/IZF/loa/e76Q9CXq+u8SiSvHdM/PcEdaPi6TIYrYEt1bX7XIfQWb+tt9Cv5hQzcdF88K78Omf1OWH34sNg7au5uKicAAORjThT8Rtnyzrr1DaL8Gt9UK/gkXV4Hah95eIYwV4AqkzwsXMo3JylYCT+O49Z74IT+/KtNft1AIY/b2KfWIKxCXslv92nR6e3hY+MMAIBcpAp+4xSHKvl9y6HvizmufxB6F+G8llxX/0byx+M8rGrYNHtwWfxB6OS3Wmshk+QX8lDdHQzCGmSV/N58WPjeVX90GgNAJub7VDtJxIiJJk2lki/zmxV8kryS3zb66AQavm4l4/WvofD3H/WLXpLgB7IxUEBUi6d0xJBR8luliGFvbp3GAJCDdMFvlHRNxVL64UqSmgYOLKqsot9rA9U/N3NYVc1vU+f9BVl+GDff7EG7B2cKFKe786h8+fJJfps0rRf2d6JfcOUD0ksY/NYxLgqaPbzt8Mc4+mm2eFvDh/iFqos+OFOgEyGLot+AJb9JGuE0de7fjgKFTjRXOqVV8gsZae40+y1enc/ZVG/sDwOufMC/Ega/cZo9jI7pm6ym3UPorbhy2uKtXeAo9/l+qRO+iZWU/Ep+w0eaKy3Fc6ZATjT7LV8u+UeTrvS2sc8bACQ2fk6YlGr2sNaF/hqKfpuMnk67NoV+zRPca0p+u7y/HssPoh/EdrvQ1dvrLGaY1fxCXm5ujUHZMrlZNCl7LlT6lgBAUuP9nPCvxwiJrFvfegrEOAPWsMVbTkW/3QJDE+hEaDJY44S7sExT4R/AZfG/E3ydi3lnCqycLqmFy+Nm0aQ9jSq7FQJAyrVw0uA3RpvfWc3vW8UYsSTJb+iULp/ueleXH/cLnggZDFvpzR7Cl5u7LIbv87tbZftNyS9kpxX9Fi2L5LdOfRLVzmIASCZt8KvZw3qX+mme6urzPz/fZ3/lP/+6Z/0DnQgZlEpr9rDEl7w0wZPfVa5inSmQH11Si5ZD8ptByW2jbQkAJHJJG/xGiQetW/MYsjU0+q2zWWp1iwzMamp+q2AHLlHT0+An3jDvCB79rjGKmTWEhgzVuqQWLIcygtsMTqDueHIyAEACl4cVTobU/L7ZNEaYEDYpIrNhDlvT0GaSglzdFuV134o5zIlQNamHrfRmD9r8RrrSBS68WmOjX2cKC59x0U+5b5rnVAWnp9XdvZ9lSpVB8nvIYuOK4+AWAwDLO6X+7TXGJFxt23sGLUbym+ST9PugL9ee8zhA187YX1u52oc5at1Y+Hh989VI8v7DN0D3g9jz9yD0cVrjzcBpwrJn3PIT0ecLbPv8f0uKgqu7x4vzpUzpk9/mJo+R+PDZIg0AlvaQfA4ZY8ot4XjP0utQxsF9xeEPm/x2mRyg/ULfiv64jkVO6TW/wQfQI/zPxsBfaMkvFOh5L9h/z/Sq2TVV1RSwYWN1uxP9lin9yXWbzUn8xekAAIuav6Rf4cWYC1m3ZjJozSo+SZvF+XR1WdJr88sxTLeMtkpb1BGuZDbRIwRNCd9wVpn8+o2ArU2Gh38ukO3T/2RdBSz6LVTy5PeYz64VnQIdAFjS9CWDBV6EmYjatveNWox2DykOxdyHrerrsojMrv5Mr55oB6qZbtPO7LX5/ZHkN84w1JMhgvWc/c/nf123VdNUWb5F0W+ZUie/9TGjc1i/BwBY0Hifw503wlzIb8nvOx/Wkvzuhi73U/QdusW+FcMqkt/S2/yq+S2F5BdWZ5qG50dt2rrJr/5X9FukNvlpk4/qcHJCAMBSLo85BL91hJoK69b3Dds+wuFN8kn6sLtYNFlEO8slv4ES2+5xHYusaSz7/f/DoxB/H891XORicqbA16vm8DSdbJsms/hX9FuixMlvm1UT6+NlckYAwDIez1m8jRjTaclvNsOWZqY5BS5fbjNYZC3X7CFU3486aWAe7jHdRKXLwa+M4ry/rw6hX3B9ya87KHz7hXiOf9umzaf5w+3kW1qcxMnrMa/ROD44IwBgCfNDJi0RIiS/k1+S3zduc/hlTaJQZJD8/jQkb6jw75vyh02zh0w+x/pVa/tAkwaM8NMFdNjtmrbNJf39cO+3vNKk/ZEwr5Lf3W5fOyMAYAHjfS69cCPMRSQc+Qxcoqld4Mixy+DgLNfsIVy7h1VcWOa11Py6Lv5tyv1IJZ8eOEfgxa/G+cv//fWYxey5umscj8KkjTqPuQ3H0RkBAPFd8qkWiDB5lXBktOBPU2Uwhg13qvRLrKubF/TLD1/SCpNgfzzV5UTyG4tnQhLcCGAtX4/zl//35Zz+KlLdqZksTNIDllvJ7263r5wSABDb40M2T3Pa4C0jMQauXsVHST9lvnb3vbeFuWGGr0o4bOHqjRPVdwUfO3FeMYdqjTcCWJH+8fPnx9SX1OqD5KwsSZPffX7jsXdKAEBc01/nfN5MhJmQNr/vNZZxgF+1MAv7cunbPVzd5jfF8CWMxNpcT6XXUvIbjS62CW4EsLKJ9Pmv1OFvc+cwFCVl8ltlGLMenBIAEFX/V07rugjZkGXre81TEQf4VWd54E+RuramvnbJ8LbOx4FSwoSBebDzbkyUEwZPfl0Xo43Eyh66tsEbvOqbkjr8bW4dhJKkvFN0OY6HVtUAENPjl6yWddr85iTCGiZVZBo6+k18ZK6dtU9vO7RzmC9RkywwD7eiuCT6BJJf6/lEPDQDr/2ynP/6nLDn794mWe4Uy8wh45y/zgkAiGbMqdNDpJmQhCOnoUv1m/7Kkt/9wsNReruHcH94NRu8uS6S9ykPJZoeP39J9QPh7tg5AOVImPxWWZ4ozl4AiOZ8n9vyX83v2pf8zSo+SuIJatUsPBylt3sIlvxOia6Y2vwWZGVbvKn5hTfpH/7vMdHX5tYD8+VImPzmmbFq9wAAkcxfHnNr4BdhySzheL8YKVeiB/4DJ3Z12ge6r521z2+t4R2nXL/fC//hRPu7hV8iKvl1i3CqQKTZ9fnzlyQXlupDZfRLkXAamenPk4p+ASCK/nOf3XvS7CGv1ct6tnhbV7uHbvHBCLOITRWYN8H+7mqaPSjkxC0U4k057j+naPpQ2+WtGJLfQt4WAJRt/vIlwx27Jb95WVE8FDj5TVuasHzy2xc9bMGWE3OqX8u0+S3IulavzhR43/zp4fNp+Wl2Z5e3UqRLfutMtyGV/AJAeDkW/Ma57Vu3XmEo4hC/7jyYVvExvi7tlj+uQ9HD1mb8hUi0RNTigNeZDQG8z3RKkP0exWeFSBe/ZttPV6NfAAi9lsuy4DdOE1jJ7zXrliIO8euE/amjSjlBvbrk9+3f/jlMUtiWOWCRTqKE6yHNHnglvxHA+yfbCbJfrX4LIfkt540BQKEyLfiNcte3bL3GVMIhTnMmpGz3sHyzh1CZZ5Uk+g33R1fT7EHyW8T5ttKbAGzHU/a77F+sPhj1IqRLfltDAgBbMN1/yfX5zQipoJLfa8TIzVOVo/Rhz/qEyW9z7RD26U6FJMMWbJUzprpyavZAsgmDIYBrzKeF93prDwa9BOlizmyrwtX8AkBAp8/5LvojzEYsW3MbvpUU/Tbpps77K//5d+WXgfokJyk1CRY3X1IdcjW/xVwYVsePp3Dt9fbhftHLzI0ArQS6PSyxCASAzS5yl37u7E1s8JbdgmVFM7s++5P1la4NMt+XX4ZZuKYIzMP1ZF7PBm+S33Uu6COwwxtcf++4f1jym3RrxN0oSuQnCwAItdz/cp/1ij9CKqSe6yoRgvNkM7vAyW+ydg91nWQg+mKHLVhGPyX7HUm3Bwv6RJwpEMLl83m5P9bcGHA3ivhzohIWgQCwRfMp253d/pmtBn9FpW3G79/zP2xul2zufG12Or3voPbFDluwsDnd5TP0lVEdJ8CiM5DH++V+Ozy0Bjx7jhEAEMXllH2MF/4XcMnvdSIsVNJNdi9By2DqOtHJdW2b3/fml31X6OEP9ifTlT+GLoSZLDnJ/aSHtX2Z/joel/pbt5+Nd+7chgGAGFPOxwI63oZPfi1br7Oq5LwP+wBkd07yKa7uWvvebcqGIMlv3Sx9IapDXVbmZDW/wReIzZ1rW1E3snSUh0Mwp/52oX5X9fFkuN0oAICtGe/vNxn8qvnNb/zS7eAwhf00ieo1rm728N4rQantHpT8YkH//rmDwwkB5+JL/WJ8tFmWGwUAsDHTw19F1L5KfjM8d4K/YsIUK2zNZqIt3q79s+++FAQKztvSBizS6fMWlvAAKzA/flmojt4mbxtc8gAAWzY9fL6U8U4j5BsKlq49e8K/ZLroN3B0l6bot0s2CH0W7z/dYUqX/Kr5JRUNkyDsPOTzMl+q9mCs8yb5BQACKif3jZJvaFJ4pQjReboCxiHs6ZCk6PfaP3pFs9qhyGFrQl1WxnQXEzW/AOswL9Tx4egnw7xJfgGAYErKfW3wluUaZVWfJmzVZpKa33Qlv4U2+g0WNF9cDdjcgt5TMxDc48MSM6tKvwc3CgBgE8rKfWNMg5T8ZrjwT1jAGPaXgCZFRU2XcAjCRL8LJ78r2OAt1WaCWNC7hUJ4l/slvll7T4u4UQAA6zcWlvvGmAYpWMpw4b+aLd5StHu4Om2+ZgjCZJ/NosudKlRqOrmYsD32SIUY8/PPS9xQFP1ubMkDAGzQcP9XcU8nh58GWbYawW/Nxbd72F/5z/fXRPkltntYwf5uSn5xA4B1TUbuF7iltJ2B3tSSBwDYnMvn+/Ja3EaoBbVszXAEUz6AGPZbkSCRS9jmd7ebpvKGbQ3NHgBYlfnLAsUZin5zJvkFAK4znf7vocTIM0IiKPm9fnkS/BVT7jcdtsqmXjzErq9dKgwZDN+iZUihkt85Yc2v9SGp+MEDInmIH/3We8OcL3d2AOCqldrD55NdWf4m+b3aurqbBm7WunjR77Wh6XjdNyJMDFQtGJgHC+dTJmDWhwBr8/AY/U/cVIY5W/o4ARS7OIP05v5UbtgZPg8S/G7jOL/lHhH0r3fnhd/+tcnvlTVGoRr9Lvdzwhra/O6s3V3igNU5z7exbx6Hk2HOld90AYB3Gh7KbPPwzxQ1+CtKfq83FnCc3yDs45VLl2xU1/7Ba38cLa7dwyqSX0Hi5m9l6SYVjibEm5A8xP4LBz8cZkvNLwDwHlN/LjzoDD9B1fXCGP5gnIOeZt2ygeC1kenVzS76IKFtW86I/XfeuBQAENKlOUSeVyv6zZbkFwB4s7nv++I/RPjKttGZkaMqZYrWB93xpC0r+b363QaqAFwsMG9C5fyXlF8Yz4QCrNFjFXkTtsPZz5aZkvwCAG/U972pHXFEeNq3SfkEceDkt6yFwtX55TQG+X1mscC8zfhr8HqSXxLx4ynE9bCLG/0q+s2W5BcAeIv1xL7huz1YtvKjsBFeUy/ZYqW78isyX/+FCLNDXve40IiFWllNLiVskZ+UIbKHJm4nd8lvrvymCwC8Wv/wf18ua1mchZ/9Wrby0zkRttx00aKN5M0eQm10VteFjFjYj215CMB37uP+sBi7nQRu7QBAVPNlTbFvnCEyBFeL8Jh72r2mw4Z43ZJvvU3/0Yc5i0+y9J/R7AG3UCDGt+wh7vfsaIjzpNsDAPBnUz/0K/tIEfJAj2hnqUl66oYN8ZacujdXRoBByp2HIFl3t8yOaaFy+bn3rWWL3EIh/tfsy13Ml687N7AsSX4BgD/oh35a36dqHFgWEGiTsr9VzXLZyLXPbAbJvPsgaWphNb9JS34T18gDENPweBPz5Q+S3yxJfgGA3xj7YTAKr+NJ1RCmtT1s3gf9jaFbLvnNoNlDqBB0mcC8CnWk066b/SYGsGLnNmbjqLZRvJ8jyS8A8AvjMAzSzDeMlyEIYH3Jb9Cud8vN3etrE8Ag+WWgkulFAvNgx0bFFACxPHyMOdE6PBjhDEl+AYAXDMMwrjv1Vdm2FYmj5DFolt1WS30tr60J6sO80SHIF7UtYcT+PWP83sY2+fUUljB/+RjzVli5h2VI8gsAfG8axmEDCzDdLLcidRHxsA/5au1SBaHX5piBusT0hyCjtsRKNNS66rLt7wvbJS+CRYynY7wXr/ZnI5wfyS8A8K9pHAcFZ++lIXKQBcnqZqd9kclvlUWb391umKtChq0OFZkmvpBIfgHW7dRFfO5N8psjyS8A8GSYxlHoS3LrOwf7OWR9efe4zLu+tuR3nEJdmYI0UVgg+Q3V7GHyyDsAMT1E7PfQ2OMtQ5JfANi6YZrGDYYNJkEs9Q0LuY12XU+LvOmr2/yGeiN9kNFbIDAPdUWxvxsAUUXt92CPN4seACAfw26Yx2kyEIGomOZFfcjkd9ct8xxlJs0eQvU+WCAwb7P6wADwKzH7PXSGNz+SXwDYmnncDbtx1tohNI+35Sn5Xn5hizjbRZLf7spRC/cUwTQGWZ5GD8ybQOfZnLrm1/KQVPwODYt5vIs369pfjG9u3NoBYBuGp3/N407gS9bC5+dN6o80jyHfwjKz92yaPex2fZDRix6YhypyUvLLZkl+YblVwWUf7bU7yW92JL8AsML53Nf/8xzyPv2bjg4vqAxBltb4y8TlJuSJ2y6RDWbT7GG36485fKDF/oA2vwBE99hFmwd3lSKT3Eh+AWBBp5MxyEVjCFhI2Kh2ieS3qa/75+eA73GcQ6xOYwfmleQXgGLMp5tor63oNzu1IQAACDKLNgS8aAxadL/E3inXPgQaNL4M82KR611Cvbx2PAAs4BzveUB7vGVH8gsAEIQd3viFoEFos0CjkjanDxymWLfLe8T+oVAKgCXEewyx01AtN5JfAACIKewT/PGLaeompw8c5sUiB+ahkt/kG7zpBQiwCRdFv9sh+QUAgJiGoI/wx8/mrl2zhU265zH/YasD9Q2fPDkAwCIesp1FEHyWYggAAMjFtMpPFTQK3VryG+jloi5E7e8GQFmGaL81aveQG8kvALBFjSHI0zqT36DP8NexT94qqza/RWzxtppmDwBsxTn7myKhZo6GAADYIOUILChsFBp7RXVtdWzY5ha73Rjk9eo64yH726zmF4CFxOv0q91DZiS/AAAQ1Ry0ljP35Dd4fJl9u4dQ28cp+QVgMadYL6zmNzOSXwCAEGzNxK8FDUNj19Jk1uwhVCDa5jti0UYOAH7lMkd64VpPtbxIfgEAQpgNAb9UUruHa3dmGac8Ry9iYC75BaA80Tr9KvrNi+QXAADimoKmoXGLfrNr9rCbwxTUt9kO2d9GPx8BsJxLrBeW/OZF8gsAAJEFjUPjrqiya/aQfdFvqONx8T0BYDlTrEdNbPGWF8kvAABEFjTUa2JO4a998SlCx+swS9NogXmoFa4N3gAodnKyyB2X95D8AgBAZGEf5I+5otpf+c/HKCAK0zq4qSINWaDDMdklEoAl9VOkF5b8ZkXyCwAA0VdXpayorn3tKIWrYV400tOnVZPhKQIAye48kt+sSH4BAKCoxVXEBnr1lTHm3Oc7epEWoqFeVrMHAJYVq92D5Dcrkl8AAIgtaKwXqsr0BdeGyn3Go9fmOWR/m9X8ArCsMVa7h8bYZkTyCwAAsc2FtHvIM/mdg0S/dZyFaKCDoeQXgKVp97AFkl8AAIguaLAXrd1DlWWb36zbPdR1Th8RAF4vVrsHNb85kfwCAEB0ZdT8Xl3yO8d5Xxlv8dbleIIAwCvEaveg5jcnkl8AAIhuGkO+Wqyi3zybPYRamkZZiAZ60XH2HQFgaZHu23VlaPMh+QUAgMIWV7GKadqcPuS38i36DXQoLr4hAJQ9OfmGdg8ZkfwCAEBhi6tINb/dlTU68QpXs2302wYqa7LBGwDLGyLduLV7yIjkFwAA4gvaS6+OM4u/dqEWr3B1yOLzxXvJsM1AAGDJ++vP8xQjmw8HAwAgBI+1GcYlF1dximlybfO7281BRq8Jv/gJdCDs7wZA8ZMT0+IsSX4BAEKwlUWmwzhl89nyb/dwbTA6TrmPXvDAvAr0ipo9AJCC5Hf9JL8AAKzYSpPfKDW/18bJMePLTNs9BHrBWc0vACnE6tAv+s2H5BcAAJYQMt2rYiyprk1+LxEHL0w9cfBSaSW/ABRNo9/VcywAAGAJubd7qK9Mk+PuUhZkaRo8MO8yPDUAYNnb68/U/OZD8gsAAMUtriIkvzk3e8i00W9d5/ThAOCtIv1qK/nNh+QXAACWELQmtgm/Gd61qWjc+DLMq3d5Ddk/y+45l3N09DUF2JZIP9va+Tgfkl8AANOqFY/ilNGnC9oHN/hmZdWVqWjsXcqCvHwbdinaZnhiXHcQXYMANiZO9NsaWEsUAICEIuQbplV5jmJOyW/e7R6ufcG+iNFrdxkeBBu8AZBKpKc9FP1mQwoPAJjlwjKn3RQw2Q4+j7/2BWPHl/1NkE8ZMqAO1HJjWvX1aLr45gPkfJmO87KNXzVzIfkFAIBl9Idwr1XXgddqudf8TkFy8+4xv7XUuvd3m06++AAZU/O7dh5LBACAZeTc7qG7co3WR28RGyQgrev8DoGyKADWMTf5T2NkcyH5BQAIwqNUeU5Os0rVgqajbV4ncPzC1fwa/YZ5rTmnml9bvAFsTZx2D2p+Vzy5BgAAk9MXhcyhAye/XUYf7WV9Fp8z/BHI6seJ0XcaYGPiJL9qfk2uAQDWN8uF3wtZ3VkFjX6bK9cF41TI6AUctS6/k8KCE4C33sENgRsxAMDqhI+pPNWWp7yeXg8a8nU5vdhlgdELUhxbhatCssEbAGZKUe+RXE/yCwAQhKfa8hzFvCpZ5mzbPVyb/C4RX2bW7iFQhjxqrQtAQvYZXTnJLwAA2Vh95XTIgLQJOFr1lSnmtET/lDB/JFhgHihCvmR1goqhAbYm0pVf3pgLRwIAAJaSa7uHEkp+QzX6DRWYr3GDN90eATYn0pVf3pgLRwIA2KTwaYt+ZgFUBRzo6wStjW3zealLQV/bNqvhn1aftbo0AkA6kl8AAHKxgWbJIYtjw0Vq1ZU1v/NY0OAFKpWu6+xOCAB4uzi/kssbc+FIAACEURkC/ixk0FcHS8rLaPYQqt1DHmMWdb0NAGnJGx0JAICEIuxm0RjVDOem2eVqQ8hTr83lhYpKfgMV64YZ/Dmzml9BNMDmTIbA7BoAYG3sY2RumkjIpK/L5IUWiy+HjIatzegTZc1vYgB5k/yaXQMA8GfyjRzN2b2jHBv9dle2KlksvgyzHVqQYWur7E6HTOmDA2BeTDqSXwCAMOQbOa4S8ivuDpqSBir6LaXZQ6DRa7N5kfySX4VfAJsT51dy8+JcSH4BgE2KUKRoXmWV8Kr1VYZFv6Vs8BboL1VtNkM/5laUPvlWA2yNFmjrZoUCAGBelYvwGVGGq5mQvzqEiR+bK8/dfrn4MswGeQGGrQoz9JcNfKs97wsAVigAAKVT2Xa98BlRfn1+gxbINkFm89eW/C65S9mQwwcOV22d3wZv8w4AWA/JLwCwTeETF5VtGcqxa+kUsg45SABZTrOHQH+rqfIY+LDnQhjh35EVJ8AWufo7EgAAK6Po91pt8FfMcr+q3No91Ff+aDFOxQ3e9cMWZm+9fgtfaytOgLzF+RXS1d99GAAgpQhhlaLf/GT56HrI3q5dBq+xaK/aMFWyVw9bHWYZlV+zhzx/LAFga5MlgpH8AgDbFCHfMLG6VvjsPMvtqseAS6wqwJhdWwC7bHwZ5K+1yV/g61o7w5pfv4kBwJpYoAAAmFhlIny/jDzLWELmfdcX/VZXvsTCvWqDDN61DS4CJb+D7zUAYIECABBchMzFxOpaG6n5DZr8pu9Yu3Dd6jDnMGzrbfMb4Ssj+QWAZCxQAABMrDKh5vft2qsH7doQ9LLw6OXQ7qGpsjsRMv7K6PYAABYoAACLilDZ1hrV7EYwz5rfvIp+ryxfnccSB6/L4Uwdc/xhIsJ7UvMLAMlIfgGAbYqRuQg4tnCUQ8gp+e2qfD7LqwwZDFuYZg+XHM/NCEG+ml8ASEbyCwBslC3ss7OZkt+gXaa7xKO+ePIbZke5LoNTdfCdBwDikvwCABsl+d3AzHTK9eQLGEnXVw5bYRu8ZdHot83uLAgo/LvSBwcAVjS/BgAoQoRQ0Mwqt/HLNfkNGpdeF902dT6f5JWCNEm4ao+2LruTICCNfgHA/BoAoHRqfrMTfvxy7faQUaPf8kp+A22M1iUb8n9k2uzBlREAVkTyCwBslHxjAzPTXHd4240BT7/NJb9h/uYVw1YF+abPmdb8RrgyqvkFgPXMrwEAihAj3zC1ukr45DzfLbQCpn7VNdFvfeWgDynC9SCHtUvyjxZwcvpNDABWxPIEANioGI0ATK3yGr0p3w8bMva7JvktseQ3zB+9onC3zedTRKADOsDG2IjTBBsAYIVi1CqaOuc1Mc04+e0Dnn8pO9YmiS/nMe23ddVtfiW/AGCCDQBQvgjBi4ear9GWcIhzfG/N+9uoVlfW/I5pwvUgefO7P3oTZAk15vq7xFTCVxsAeB3JLwCwVRGKfiW/eY1exjW/QYtl01Wv9gUPXptq0JIOXZqvjS3eADZnMASZkPwCAFsVodFvLeDIamK6leS3S/BPhv8Ub/nuzimHTfL7Zn4TA8iY2asJNgDAGsXY4k3AkdXg5VxuMgc8/94fRV6Z/E5jotFLWvQbJPlNNnRJrowujACbmoCRE8kvALBVtnjLS/ixm7L+vJeAU/r3rtnaK8t8ktWtDgnPuLbK5hMUc2W06ASARNyEAYCtihG9qJrIaV46Zv15c2j0W2izh0B/+J07ta292YOaX4CN0e3BDBsAYJXsYZ+V8OFQ3snvNKU/765MfudkhathemW0KQbtbxknvy6MAGZga5+FbYnkF9geyw/gbzG2sDe5ymjdkfmaI2D2984wsqmz+QRJ/vS7JgRVk9nBL+J748IIsDWzIciEezAAsFkxChb9uJTR0G0n+X3n4LUZfYIUf7pLd57mnPzG+E1MuweAfLlGr5vkFwDYrBgbgEl+8xm5Oe8d3nZDwGqY9xX97q/9BOkGbwwxeO8q3w1zog45n5mSX4BN0ed33SS/AMBmxSgJlfy+1+aaPQSt+3zXeVdfOeb9XPrgdQv9Mz+fm1n/KhHhm+PCCJCtSMHgYGTXfYABAPIXpZ2luol3Cp/8Zr/kCPgG39Wxt+BmD+ka/dZ1Nu8+GjW/AFsiGHSAAQBWKkb02xnW99lcm9/0jX67jN7/mwWJzdsq0Xmad/Ib4Ztj70uAbLlCO8AAACul3UM+IiRD2Se/85D0vKuuTH7HufzBe/uwBflpZ8r73Izx7hT9AuQqUjA4Gtl1H2AAgAJIfvOxvQ3ewlZ+dssP+WUFg9emOVEzb0QyzyV8wQEII9Jvc7ORzYTkFwDYriiNfk2v3mWDzR6CJr/V29dtRTd7CJSevnkMmiqzA1/KlVHNL0Cu4sxcBb8rP8AAACWIUnmnti2TYStgT+mQD/0v3rdgTFxTHeTvv/mHmi20+Y2S/LouAuQqzm9zmj1kQ/ILAGyYLd5yUYVfdhSQ/IZ8j28+79qq8PFN0ug3yNc79+BXHxyADfFQxtpJfgGADRNw5KIt4+CGdkk4gl0+7/19guSnXYoTNfvkdyrjKw5AAJFywcHIrvwIAwCUIEY4WEk43iFCm98SGsyFfJNd5P/+D6bkyXqKmt8un3ee/dBG/4oDEIKa37WT/AIAGxYlgdHu4R022eY3bPXnG4ewqbN55+80hzjEb2wzEuQ8Td0h+TVvMfxLShYAtjIFi3Un4X0kvwDAhkWZlapte7sIbX7LWHEEzE+7ZU/TYSWD1y3/5e7zPy+nIr7jAAQQ6fI8G9lcSH4BgC2LEV81Jlhv1pZxaLN+l/Xbzrv9lQu6fiWD96bkN0x6WUDya+9LgK2oqzivq+Y3n0P8/7d3L9xtG9maQAkCfEi2M/P/f+WsWOIDz1myk7QTyzJJoIBC1d697sy96W4SOgBB4OPBKSUAADJm3EMcpi9Z36/iDx+WGvewHZlhxpBeTjI1oSzmPk77FdwMG/QLkItQT2To+Y2G5BcAyFmQDEbye7dcx/wuN+6hSqG+s6/xVuVyaHar+JADEO3ZuVXZaEh+AYCcBbkurQqFvU+AARltfkfgXfduY3+eiGJiweyDfnMZ87sZQrTM+0kMIEKBkl8tv/GQ/AIAORs0/SZ617GW5HfCR//vGUJbjDxGmyju6Obu+Z3mF4o1JL+afgFyEWjagzG/8ZD8AgBZk/zGINsxv4uNe6ji2eoRJpmSfMfKeNm0/Ib55cR5ESCHS7C/LsSUNhqSXwAga2GWeDPu4S5FvmN+l0p+d2nUt523bBklvyF+Etu69QSITqjnMSS/8fD1CwBkLUyCpblt6XI1q/nju+nujcpirpJ3kdzQTbKbqwD/ydlPOas4MTovAkQnVPJrhbd4SH4BgKyFmQpwUNh7BAiEVnTDscQab2MXIaxT+vjOVrVvupV0QXXr+KADMMo20JhfLb8x7WQlAACyFiQiLF1j3WP6QKhb0ZLSS4x72MWzzctvyM3DRjIa9hDmxFgZgwMQmVAtvxZ4i4i7EgAgb2GCGM1tyxaryfMIrGYqeTzr57Vzlm2X06Fp3AOAa7DHSX4jIvkFAPIWZiyAcQ/L3nWsKfmdcGNvXUJrbE96k1btbjwAiymeiO3Xci/creSjDsAYen4zIPkFAPI2BLk2DTU2LUm7lezUUOYf9zD2Pq9Oq3g3royX0fpuofq6d8Y9AMR1CRbqvCz5jYjkFwDInKbf9O46VtXyu8C4h/24d4mpb3WSj+9uyuKmcmga9wCQwTVYoNcdrPAWEckvAJC5QIN+Nbfdaj/9S7arKsCEHcq3hZNjO9Lb1D6+t5UtqzG/kl+AHBjzmwPJLwCQuXYI8aqFiGPBSq2r53fC4QnFTRlmlVB5JxlKcFNBttu8jswwya9fxAAiEuys3KptRCS/AEDujHtY9q4jwB4dsj0CdzOUfIgqvpxiY25qgs5s2MOmH1bycQcgupOynt+YSH4BgNyFCWNKa7zdZr+WPRpON900vFviybFd1nGVt52rbLtotnbNJ8b9BoBYFMFOynp+YyL5BQByF+jqVNPvbVej1fSvubbkd8INLm94brOK8wOzZO2qTfiybabN+Fd6YqzcfgJEI1jLbz8obkzX2koAAGSuD/NI2t5Ey5vKNP1LdqtbUHrecQ9jb/QiC9abeapWFpFs6xqPyrAfeAAeE6xJQctvVCS/AED2AsUxmn5vESAIqtd3BE7XG3NDZ+oumo2N5/aymqKwi51qwuj7lXzgAXhIuMFkkt+oSH4BgOwFimNEHDcI8fB3m/MheEOEWaRV3klqt5vgP/F7/bpWvAmyp0OMdwHgEeFaFCS/UZH8AgDZCzQdYCv6/b0ANepXuKD0dLdI29828CQ27GGa/T1Pz+/K7oSbtXzkAXhAEW7Mb6+6MZH8AgAY97DYXcd+NXtzLUfgbxPKkTd68U1RniJPLbdhq7bKQzPQoF8D0AGiEO58rOU3LpJfAIBAg2FLzzX/Tohw/LrCOgzT3ST9LqLcbqP8sIwwSZ5ajfz359vSGY/KbjUfegAiOh1LfuMi+QUA6AKtWXVU2t8I0PLbrfIRw/kG/Y5tXo3vdq4dZihbFdVOXt1RGfhDD8D9Z+NweaDkNy6SXwCAUJFMpel3/ruOOvcj8DfR7sjcLcYpym34qm3LuHbyms+L290GgMWFa0/ojPmNi+QXACDYgABNvx8L0f3XrLISEy6G8vHPDUWZXnmn2Kbf1GWS33BW1wMV6GEI4x4AlrfT8psNyS8AQLDuBE2/HwoxCHmtjSZzjXsY228ZY0t1G75sVZ6HZpicvyo3ACws4K9wkt/ISH4BAMJ1Mmr6nfuu47rSWkyXqJYfXuCPTH6HCIc9TDOB4uPCZDnmN9gma/oFWNouYG9Co7xxkfwCAITrZNT0+9GFqGEP/zPhg/UfHnO7FMvbhq5auc3z0AzUtrV3DwqwsKdwLy34je6CWwkAAMI9iK3p99dCdP7Vw1qrMc+4h100Wxld7XYPlvRWMa6N9zuDpl+AJIX8CU7yGxvJLwCApt8lFFp+w2z57sF/7wZDpD2/U+T91YP/3s0bmfdR+S/7wvkPYEkhGxMkv7GR/AIAhFy4StPvrxwCpD/9em83pgsGiw8W0NrFspHxFS9kq/Rq74QD7fBC0y/Ako4Bs8BuUN/ISH4BAEI+il3tFPddQcKfFfeZDHM0/ZZFmvWdYrs+mOVbZXtshjovHjT9AiR2Cfa3Wn1jI/kFAHhzDfXCT2r7riDZz3XFBZmuvfLXQeXYARtNyrWrHvh31l+6ZW7gNf0CLOgp5M9vhj1ER/ILABD0QnUr43hPkOin7R2Bb0HlL+/oxg57iPUJzklaU3ebQGVb851wqM3W9AuwmGof8MW7XoFjI/kFAHgzhJv0K+N4R5DkZ9VPGE74YP2velS3I6/9400vgw76/Whw8qxbuO6j8t819YMYwFKeQ764YQ/xkfwCAIS9VC0s8vZOUUIEP8O6bzfCj3sY27vaJP3p/WXAO8Wwh9X2QIX6TB3chwIs4xj0BGzYQ3x84wIAfBNuUsChVN2famLK70+my9h+lfCOfLwz4vRykpXEd3f+8yzuhENtuB/EAJZRBj3/NoY9xEfyCwDwXbjc0CJvP12DBrntWPkThtMFq7+Y6jB2akHM6eUU21bd+c9Tqd2HQo172OzdiAIsIeisBy2/UV51KwEAwDfhcsOgS2msUpDgd/V9JqHHPaQ77GGiQb/vN6JvJ7hjCpafhhfsF7HnDQDzX4EFfRBtkPxGSPILAPDX1Wq46PfJIm//UgaJwq9rL8t0t0u7O/7pzaJOLyepXXXHP71P66j8ua7VBoC5r8DCztppBiWOj+QXAOAv4ZJfMy3/Lcj4i75de1mmy9iC9PxG3cczdLGWLf7a/aayzapOAwB8dEH6aa2X0jxO8gsA8Jc2XE/jQXvbD3ZBqnFZf2Emy9iK9yqc8rCHabbu/QplPeY35LaXB+dCgHk9hw0B1/8jfJIkvwCjeJ4FkhJwXMCzeQ//KIL0+qUwWi5s0+/I5Hdok6/duxN9yyKmHbuAOtilztFZEWBWh13Y178qcYwkvwCjdEoAKQk4nWyrve1/9x1BrkCvCfwUN122urvxn93z6Yj8+3iK/R+iVXqz+qXOg219Yd4DwJzK0Kddwx6iJPkFAPjbELBXIexayqu6/gwz9DiFPpPp1lB7p1F1bO9q7OllqHEPmS/wFvSjtTcFB2A+xefAb1B7HjbOK28lAAD455I14Gt/8mTzd8/uNmY4AHc3/JP7xJ78TpGuvhNEFhOEk12/6qOy61Z2MgDgPZ9DX4lq+Y2T5BcA4B99wGvWQK2uqxNmebcU1nebtDf05yqnPexhmg0syhsKmWDtFruVd1YEmM1z6KfPOuu7xUnyCwDwPyFHBhw82fyWrQVq+e2TqM50zaE/HWzFyBu+6NPLYYrO1N3vC5li7X736Qr30qbgAMzksF/zRTQjSH4BAP4naLuCeQ9vHSdhipDKA4aTZYTb/17mpz7sYZotnLxVejPp+OaFDAE/XuY9AMxiH3xRzcGwh0hJfgEAfhByaEAh5NhUuyAv26bygGG4cQ8je1e7+OcoB0l+t9uYdupSAt7Ml+Y9AMygDH8NquU3VpJfAIAftCHb83aH3MsbKvy+pFKgZrKA9b9P0Y+M3FfQyDNJOP3fshn2EPq0aN4DQHjl5+BvMUh+YyX5BQD4UdDr1qfcQ47nMBefbTprikz2l/wnsixHTtlYQ3oZoulX8hv8tPhsCg5AYOXn8KfaZlDnSEl+AQB+FHapsMxH/e7CzHpIp+V3wpTwPz8yjB320GdSu//WaRfRLl2ytAHv5817AAhsjuA3pWux1Eh+AQDmu3Ldfsq5tKFmPSTU8jthTFh98H/dX+I11G6KjfxPYF4WMe3S5QRdtuew2wAQzizBb90rdKwkvwAAM166Vjn3t4XqeE6pzWSYbKLqvzPMkcnvKtbrHiaIfrfFlGX7JonfJYJOwXl2TwoQzizBr5bfiPmWBQCY89r1mG9/27EK87optfxOmLH+K/kd2bvad6uo3fTjHiY4ZLskuqD6kJ3LRdaPQgCENU/wq+U3YpJfAIBZL16fc13lLVi7c1ptJmEG/VaRbFRY0497qCLaocsK2vRbPm9wuw6EOcPOEvxq+fVVAgCwImGvXotMV3kL1tdXJ9Xyu+mn+uFhyuR3JSWeor32X5XaGvP7zyEQtO17v/e98/5ZU2GAkd9q8wS/Wn5jJvkFAJj38nX7OcuqBgu8U2szmSwprH7xv99vWEt6OUFCPWVgvlnPoIzfC9r0u3nK9VGIjw/Gzxa/A8bZzxP8avmNmuQXAGDm69csH21+CjTkN702k8lS1h8u9Ef2rjYZ1a74sVQTHLTJdKSH/aDl+ijEh/af5eHAOMeZrji1/EZN8gsA8NMFbOC0Zv+UXUn3h0AvPCTXZtIO01/o5zHmd/pBvxMEb00yB2bYT1qmj0J8oHh+loYD4zwf53mfQctv1CS/AAA/CX0Fe8hteGMZLOu+ptdmMlVW+EPcOzLBXE3f6tBOWrZC8vvjXzKEPUdY5e3f9fhsxC8wTvFlrvPIVctv1CS/AAA/aUNHXc953dSHe5R7uCZ49E1/oT+u5zdw5DelZtKyCX7n/Kztjxv+Vw2THoCRyj/mOo+keC2WFMkvAMDPzqHfIKsFjYrPwa45z0N65ZoqLJwswlxRetlOWrYqnp0Zg2vgD9tRk+s/p0yTHoCx9l9mO4+keC2WFMkvAMDPujr0nX1OHV3hYu7g+2kJw+TjHnIZ87vZdP10VbPA238PzNBNXc87Xz3flF+E4MDIy8zn+UboJHktlhTJLwDAOy6h+xcyin4DjrY4J1mwqdLCf7p9xh1q3ZBX7f53gzT+I9olNfowdNPv5tmEgzfHL27SgXFmHRV+Vu/I+VIBAHhHH3xmWTbR7z7c3UfdJlmxqXpsy5/+l8eqnFnt/rlB2hbR7Mo4BG/6LQy33Wy2nw08BkY6fJnxbNq0Ch77F4sSAAC8I/w6xZmkHPtwzxsOlzRL1ncTX+mPu+RfVXo5wf3nPzMeLPD201nRoxDhT5hfqg3AqG//z08zvtug5Tf+I0IJAACWuZLNIuUIGPzOkM4vZKL2mX+u9EdFSf2qqjzBkOR/yjb+4zlVhh9NdT0KEfrv/2RpN2Ckw7w/ICV7LZYQyS8AwLtmeHotg5SjDBj89pdUqzbRfIW/r/THHWUra1ttJyvbBMlvck/ABm/6zTz63f1hkTtg5HfY56dZf0DqLmoe/0GhBAAA75rh8bXkU47yc8AXPyVbtonWVNtOcsW/siW7xwfVE41H3qQ37GGOpt+co9/i0ycNv8A4x7knxpj1sAKSXwCA93XhQ47UU47yc8Ago054SZGJEsO/LvVHHWNrG1gwfjhFMd2dUnLJ7xxP9WYb/Wr4Bcaq/jjO/APS1fJuKyD5BQD4hcsMo8uSTjmCBr9JLykSUfLb5le76l//3/K7MSZzrKqYZ/Sr4RcY/aX/6fPcEV9v1sMqjgwlAAB43yzZYvF5n2r9qpDB7+Y8JHzoTZv8biPYlPmMj6qLqW6UEkx+N7Xfw4I4aPgFRp46jwucR5K+FkuH5BcA4FeaOfodi+dEo9990OC3rdM+9Ka81B8Tow1NfqUrp7pRSvIZ2DnGaxefq01W5l6RCUjP4Y/jAt+4jcKv4ktGCQAAfuU0Sy/D81OKtds/h3z14ZT2kTflvVReLb8TbPJfGdzo8LHrUzw021l+D0v3UYj3HP/ILOkGJr/m+mOJ349SvxZLhuQXAOCXZppfdnhOr9/rEDT4nWUG85KmSdeq8Rf8bYa1+6vnd/SHMtFWqHkGbD8fN7mo/sjnbwWC2P/xvEi292rWw0q+Z5QAAOCXrvtZBk7uy5fErp4Dj7Bor4kfeH033YE36pXW2PM7toe+mKBum3ST366epR/3uM2jl2z7ZMAvMO4a8rhQS+e1VfyVfNMoAQDAr80UPpR/JLWkUfEpbDaUwfOFk6SG3w+qMb2rzQp/kej7Sco2+j6p7xI9Nmda0Gf/JYPRt8Xxi+AXGHUW+T/PC+V63UX5V0LyCwAQwXVt8SWhuZbF58BhRuqzHqZKfr8nZ9XSm7HK2o2/T0q2F2qY6aRYfilT/5jvvhyt7AaM+KZ6/j/LnUVOZj2shWkPAAAfuexmSh+eq1QaWcvPgW9Dkp/18G11sCg6NFaZXraHsbdI7RTJb7orns80BGez/XyuU/6Ql09uxoER9vslTyLnzh5YC182AAAfOn2Z6wq+fE2ilXX/HPgN8lhLup2iCfxbhDkipetWeURG0vObbvK7OX+e532K5/KcbBG3x/0G4OFzyGG/6DMDzdU+WA3JLwDAh7rz00zvVH45rT8sKp6CxxmnPofjrpmsjiNuDVfacdmMnDbyLTAfe0edcPC7aeu5QstD9Zrmx704HMx5AB4+hewOC4/DyeNH+FRIfgEAPnbdzXXFVHy6XlY+NW37Kfi9SNNkcdg1wwTBUDGyd3Wlo2rbKeZMjz2Qkz5Mz7u5Ysskfg/72cF8X+Dhr/bdbvmlIV8M+V0RyS8AwG+c5ltj/lCdVj03bfccvFR9Lm0mU8SXZTMq+e1XejA2I9v0Jxmx3KZ8cA6XuZ6ESOH3sJ/sj9ZZBx48J8YQ+xryuzKSXwCA3+jPz7O9V/nlvN7JaTNMethsXnNpM2mWv7dba7Nl341r2P0Wy43s+e3Snkky35MQm81h95pUxCD3BR79dtpVuyg2pDbkd1UkvwAAv73CnbPB4mm31jm21fMMgcYlmzaTqWLXEQlmvdbatRPMHCni2H2xOv0x33ttv1wu6dx/P8t9gUe+lKpqF8vpozvbH+v65lECAIDfOX2Z8Wq7+nJZZS/F8TjDm7SXbA66oRsfX1ajEsxhtSl7c1j8Fin15Le/HGd8t+PulMZPPvulF2UCVqmqqojCu+HVkN+VHT9KAADw+4vcLzO+W/G0X1/MUT2Vs+yIjI66+mnhDVhveNmOXx5v5G89ffK96ZfdnBlm+SWFab/mPAD3fxuVVRlZcPfa2y0ru0ZXAgCA3+rOs6Zw5ZfLdVUxR3E8zPI+WbWZTLBEWPV/x/y3V9y2OnJ5vG0/Nvlt0z8+T19mfbvD7rzyPmq5L3DntVVZlWV8J45Ta9esjOQXAOAG15kX1Tju1xRz7J7muTM5Z3W30fXL3u8NKw7aRi6PN36GbZPB8TnrvIfNZvupPa23z6w47OW+wM2q7bYqiyg3ra7tntUdTkoAAHCDWUf9fo85zit5YHz7PNMlZZPZWtLNYdG3X3PMvvi2Z5D8zjzv4e3W9Y+VPQvxv3PkYV9sAG440RXldltGfMZoT3bS+o4qJQAAuMG8o36/Xad9qc8riDmKw1ydf11udxsLJ79rDi/7rlS74E6f5w4njofzCpvNqv3eNyjwkbLYVJvttoh/Dcju1d5a4deQEgAA3HSxe3qe+y33u2v0LW77p7nCn+GU21rSE6xTNsaq08tW8jvDOfEy+yKExfNxbRMm94dyA0Rru1Qotv32JFm1slhueBkcM+sj+QUAuE1dzd64VRwPl6gnHMy5ZtGpy+6Qa5ZsFWxWfXdnUsYc5h5//mb7ub2sp7zGPEDs9OTfQ/C7TpJfAIAbncr5e7eKp8Ml2sebq+OM15KXJr8jrl3yhnTd4eWy/dJdn8kRevpjgTJXq8l+93t320BKXjo1WCPfRQAAN1/xLhFzbJ+P1zrGHotZc99Nc8nwgGuyffPx2p3ahTe8fl7k3LOG7Fe7L5Cak+B3nSS/AAC3Gl6+LPG226djfPN+55zzkOPqbt8PuHa5i/W1t602kt85tNdlxmpUn7trzGu9FTvTfYHUnGo1WCfJLwDAzRZY5e2b4nhoLhElccX+MGvuuxle85ws1yx3sb728HLJltA+o66oc7VQwlk+H+tYF8Dc7XcbgMQIfldL8gsAcLu6XGjhqGK/b+pIwrj5n2IeXvo8j7fmabm3Xnnp+m65nss2p2P09ctSMw22x0NzjS9k3+12pjwA6bkIfldL8gsAcIfzdrFmrt2uj2Hg7xLtbOdcJ8stF1+uv221XS75zWoxwv70abH3Lvb77trE1Pgr9gUSVV/UYLUkvwAA9zh9Xi5Q2j49Ldz4uz3stgvUPN8+k8Xiy/WHl/VhsbfOKvndNJfjgu9ePg9NHUeTdVGJfYFU1Sc1WC/JLwDAPYaXP5a8ud/thrpeqB1zqUWL6owfMFwsvlx/eNkNhdrN4lItek9Z7Pd9Uy/do77dVWb7AulejQh+10zyCwBwl+Hl86J9XcXhsETOUex2CwUbWd9uLBVfDgmMqm32C71xm9tR+vplu+wGbJc5Kf5jV+22G4BkCX7XTfILAHCf7vXzwlvwLedoZsyXttVusX62Lu/bjYXiyxTaVtulkt/cen43w+vnxacczH5S/FtZ7dxSA2kT/K6crykAgDu1p+fFt2F7OAxNO8vaRuVut9xo4033kvfBJvld3d/Q9dkdpd35OYKteDsptk07Y/nLqqpM9gVSd76qwbpJfgEA7lVvYsg5iv1+07Vhu9wWTza6lyHvY22hyQEpJL9DV+a0y5Y9JW6PUWxHsdtt+qZtw581irdzo+9CIAMZL7ObCl9XAAB3q6t9HBtSlodN23ZBgo4Y+tmGU+bB72Zolpizkca8gmaZ5DfLW+TLdh/LpmwPh03XtQF7f6uyrMz1BTIh+F0/yS8AwAPXwZtoco7NW+dZ33bdhK2G5bYqY7hMHF667A+1VvL78F+xSB/qkOcxey7LiLamLPeboWu7qSdvbLdVWQp9gXwMZ8Hv+kl+AQAeEFP0+xZI7L/NF+3afmTSUZTltozlClHw+xZfPi3xpkmUrhsKtZvvw/olskS0+DaNoe36rpvgyYGqKLdb985Adud2F2IJ8O0FAPCIU7GLbZPKcvct7mqH7v6+w+12uy2LqK4N3W+86ReYVtsmMmNjkeXxMk1+N8Pr5xgXO/s+jLcdur5/qBu7LMri7dToTATkeGZ3IZYEyS8AwENOn8sot6v8foE3dJtueFts6qMu4O327XKwKDcxBhvuN75bYFptKuFlu0Ty2+Z6oHYvXyK+6d39tXP6/u3E+HEI/HY6rP46NQLkK/tVdlMh+QUAeMjw8jnmWKCofrzQa9d3GSj4/csC02pTSX6X+DuafG+Tu9Pzqm5+3/tRbGuIL8Df146vgt80SH4BAB4TefS78ms+we/fun47+zum8hFdYlJGxodqvXle0+ZKeQE+Oqef1CARvu4AAB4knFTbOcyeJaYzqbbJ4i3jUV99XAHScBb8JkPyCwDwKPGkys6gSf4NE/pLkumXfsy59nkFSOE67NVPeemQ/AIAPH5hLKBU1+Dmji/7dIrfzT6isM38YD2JfgES+Pp8aRQhHZJfAIDHiShVNbwm6bdL62/JPvgU/QKsXus6LCmSXwCAEQZdEQFq6objX2Y+xFqle/zYdeiKfgFW7voyKEJKJL8AAGMMr4KOaXV/Ss/+bd74ckjpt4w26V0Vp5PPL8CqL2zPipAWyS8AwDh63CbV6TT56SZs1igtqfBymDn6lfxuNhs9+wBrvgzzVZYayS8AwEgn6x9PpxX8/mzW3xbSuuMzKWN+xrUArPeKwyk8PZJfAICxzic1mOyOQ/D7szbZN0vsr2kcvW+Gr56DAFjl+ft08kWWnkoJAADGqjfPijCFy0UN3tH187VrJBZezlk6Lb//OG32igCwuu9Mk9qTpOcXAGC8+qseiQmcBL/va5J8q1m0ie6n2D/Kun4B1uZq0kOaJL8AABPoXnpFGGl4kRb9wozxZWrh5Zx/T+ck8A/RL8DKrsJez7oY0iT5BQCYQvdVo8TICr54Vv5X5hvB0KV229cm+l7R08APsKorjT89t5IqyS8AwCSsajRO6xnDj6oz1xsldxAPM8axzgA/ulj4EmA1X5bnVw2/ybLCG5CdUgmAQE79UREedT2rwQea3VxvlF7pZrvhGfx28S/15qlQBYAVaE/GFSVM8gtkx10IEMyle3aOeYypoB+bK5BNcFJtm9xOWo26++yECBC94XJVhJSZ9gAAMJnGxIKH9CZl/O6ubKb8MsFJtfOF2ZLfn2rvhAgQvfar4Ddtkl8AgOl0L9KfR+455EO/M9NxlWIC3yb3Rms6IfpoA0RtOL2Y9JA4yS8AwJQX0K9WtL/X5cWqIr81T/Lbd0r3+Ps4jN85IWrnH6VVPiDwd9efzjPJM+cXAGBSl/aT2ZZ3GF61St6g7+fo2EhyV7SJvc/KnLonRXj428QPiUDYi4uT764M6PkFAJiW2QV3VetPNx03aZJ5k7kNTUJ7aIWuevof1H0V/AJBvx8vrsGyIPkFAJhYb6mMm5n0cKs5csUhzfBynvvazpzEX9XfsN+HXNUNCHth4eelTJj2AAAwuXNj4sMtPGV4u3YIf0gl2rXazDJuwKH8S93L014VnBwBZxkWIfkFAJhe++cnl1m/1Zw0/N5RrfDhWaI3gfPMSLZEzq8Nhv3e63pxcgRCnpfPvrXy4ZYEACDEJfXL4ajt9+MSnQxGvccMyW+qO6Q5zHA4ezL/I9f2kzGDt9OKB4T9yrpe/bqUEckvAEAQ1/a5VIVfa0/mot5XsODv0KR6H9jOkPz6GeNj3dfnnSrc6GL0JhBSfXEFlhXJLwBAGN3X41EVfmG4WAXv3pI1oZOzZMPLJpH3WPfx++oxiNv4UQwI+311dpLJjOQXACCUS6Pt932yjUeKFjr5TfcB8yZ8u6mn83/LYxC3MHsTCPttdfF9lR3JLwBAMNp+3yXbeEgTeJGsLt00Pnhonu6kjGnPh08HVfiYld2AoF+Hct8cSX4BAALS9vuz5iTbeETfhT2UEo7jQ4fmWn5vdG6eLfT20WF0tlAgEPAcI/fNk+QXACCk7qvplv9i1frHb9nCJr8JT6rt+9B5ozG/Nx7DX4/afn95mJ4dRkA4de36K1OSXwCAsK7Nk0Xt/3G5avh9+KYtaGbWpzx6uQkcN3bmVt9o0Pb7q8pcL4oAhLuEuPiiypbkFwAgsP61knV8Z2W3MbqgnatJtxu2gZNffVR31Erb73vqs9/EgFCGa+3yK2OSXwCA4No/jwcjHwx6GH0c7QO+eNKr7oWOtS1ZeIfh3DyZfv6fA0gzHhDu6utiFdK8SX4BAGZwqY/7zEvgYebRmoDH0JD20lJN0Ikrg3W57vLW9uunsB/qYdElINz339UZJneSXwCAOfSn+pj1lZeHmSe4fVvpa0eg3W0ULyKX2vTzf45NuS8QylBfPVGA5BcAYKb7+5f9Mdtxv83ZrccUZQyXliUeXjZPQV/doXkv08///l6Q+wLBTjC1WURIfgEAZlTXmT7jLNyYSLjkd0g8vOy7kJNlHd6PFO3PwzH7kQ9OjUCw773aqm58J/kFAJjP5XrIL/sVbkxXyhW+ciylC5j8WjrnMdf6eMi6AKZvAoEMTeNpFP4m+QUAmPNa/HLNLOzoL541nK6YwTpXk79DbAJ+7MR3j54Oz9eMV76sL9rxgDDfeI1fJPmB5BcAYFZ5hR1y34nv5iS/D2qHcM32GqseP0HkuvLlcPUYNhDmK0nsy39IfgEAZtafLplkv+1VJjbxDd0x0Oumf5vYBpuR3InwxuyXlyq/7Le/CGaAIN/mYl9+JvkFAJj/vv90zmDer/m+0+v6bZh9lcHtcLDk12E+sn65Zb9N7RcxYHpD04p9eY/kFwBgievz5Nd6q6+d3Ty9QONqM0iiwuWzBpqM3jcZZb9DfdUjDkyuaxs/Q/ILkl8AgGUCgMtlf9ym+sdJNwJpgyS/OcwrCLY63uAnjgmO60yy37b2OwEw+ddQ27Quuvg1yS8AwFLqujrsEvy7DLEMpwmyUFkWaVQbKPn15P40u+elPCQ+/twPYkCAk2fb+P2Rj0l+AQCWvGDfHvaJDX1orh44DHnIhPitIIs9FmhQhuR3Kt3pktzZ8MfjxHRfYFpD27WuuPg9yS8AwJL682V3KNP5c+paV1tQIRYq67PoF2qHMKmi2+4pz4b7Q5IjcLqr5yCASc8qXdfq9eU2kl8AgGUNdV0edkm0uulqm6HGK3nNCAVpl95I9CY9G16v6Y3A6erG72HAZPq30NdXD7eT/AIALK47Fbv92q/Lurp2IxLeEGChskwWnWqCJIpafqcuaLvd79Np/O0bw32ByU6QfdcJfbmX5BcAIAJDXa867uib2lOH86ifJj/4Mtl1YTJabe7Tn00ul90uidXedPsCU31R933bO6HwkMWSXz+OAwD8S3+5lPvdGsPfoald282mmTz5zSW77AO0S286N+JBjvLmvN+vfP5524h9gdHfXH3fd4M+X8bQ8/vzV7QSAAAL6c7nar+ykb9D0+h6nPcucOpfB7LZf22AKNG9Q6gTy/W64scghqY1ABoY890ydJtu0OXLFJZLfvut6gMA/HSx325W1PnbN43ka27NYeoXzKVy9SHAazogw51eVvoYRNc0Zt8A953v+r9mL739jwsrpiX5/fl2y1EBwF8uFzVgCd35XO528T/pLN9YxvmsBg8esf9PDVZ4MtxXKxr70Ddtm0mzb+vjhEtzHDursFzy28Y6aEI3PQCwuK67bKtdFe/cBw8zA7OcDM+b7a7arWBL+7Zt3UsCEJkFe36j/cZ2VAAAMVyT1PWmqqJs/W2bVrMvMNfJ8Hotql0V89yHrm0t9gdAjJZLfqO9XTDtAQCI5rqkvRRVFdWzzm3buloC5jU0zVvrb4zPQQxvqa8nIACI1ILJ7xDn44tuZQCAmLwFHkVVVhEMyhraTuoLLKS/XjdlFVX623ZafQGI24L3EG2cw5rczgAAsXlLfzdVWS74tHPbdZ0JD8Cyuu66KcuqXPxBiL5vO6EvAPGT/P60WQ4KACDKi5R2syneEo+549+26ztXSEAkuq5e5lz43dB1fWe8AwArsWDy2zzFWJDBfQ0AEK3h27SFqtyW5RwPPL/lG71OXyDKc2FRVtvtjDe03dD2vcwXgFVZMPntuxiXqm4cEwBA5L7Fv0VZFlUR6HJq6Ppe5gtE7ftPYWVRbbdBfwsburdTYm+2AwArtORaIXWMTb+SXwBgFb5nHpvtXyZ60W7TfvsXwDp0389YVVG+/WvCF+77TbvpBokvAGu2ZPIb47iHQfIL6dsqAZCQf0KJalMWb5d2D1zdtW9PMW/ajYADWKv2rx6ev06FD2bA3fD2A9im/fb/AsD6LZn89k18a7zVDglIn+QXSNIPnbpvHcDfY49f9QJ/z3jf5lVKe4FET4VvIyC+jYH4dQz81xnw2/BeDzsAkKAlk99NHV/ye3VIgBMfwNp9yzI8yATkrRPnApC9RVvfmuh6TBpdL5CBUgkAAACA1C370PMltnJo+YUcznuFGgAAAACpWzb5rSNrsW09DAQZMOwBAAAASN/CCx1F1vR7cUBABiS/AAAAQPoWTn7rLqZi1Fp+IQeSXwAAACB9Cye/m3NEtRi0/EIWp72tGgAAAADJWzoBaSNaU+3SOx4gAzslAAAAANK3eO/bZYilFN3V4QA5MOwBAAAAyMDiye/wGkklhpOjAXJQ6PkFAAAAMrD8vMtY5j2cO0cD5EDwCwAAAOQggpWO4ohc69rBAFmQ/AIAAAA5iGGN+5cIRv12Z8cCZMGwBwAAACALMSS/w/LR7/AyOBYgC3slAAAAAHIQQ/K7fMOt4BeycVACAAAAIAdRJL+b+rTo2w8vVneDTFRbNQAAAAByEEkIsmj0K/iFfGj5BQAAAPIQS/vbgtGv4BcyOuVZ3w0AAADIQzQPPtdLjdoV/EJGjkoAAAAA5CGekZftS7/E23Z/Cn4hnzPeXg0AAACAPES02FH3tZ3/Teuvg4MAsqHlFwAAAMhFTMvcDy+Xud/x9eQQgIxOeFp+AQAAgFxUUW3NpXkuZ3y79tQ7AiAjYVp+nUcAAACACMWV/G66r8dDMdN7Defa/oeszndhWn4lvwAAAECEqtg26FIf53ke+3ox4RfyouUXAAAAyEd0ye+mP9XH8FtVX6Q1kJlDmDOLcwkAAAAQoyrCbWpfqn3Qvt+hkftCdoowLb+SXwAAACBKVZRb1baX/X4b6MW7ujbnAfLzHGiGuOQXAAAAiFEV6Xb1l0u5300f/vZN3dnrkKHdLtALt2oLAAAARKiKd9O687msqmq6Nr2+bVvdeZCn7XOoV3ZWAQAAAGJURb11XXfdbLfVptoU5YiXaTdDN3SdGQ+Qr1CzHiS/AAAAQJyq6Lew7z1LDYx0DHauc4ICAAAAorRVAiB5u2OwlzY5HAAAAIiS5BdIXvkc7rUlvwAAAECUJL9A6opwQ34lvwAAAECkJL9A6j6XAV9c8gsAAABESfILJO45ZPBrgTcAAAAgTpJfIG3P+5CvLvkFAAAA4iT5BZIWNviV/AIAAACRkvwCKQsc/Ep+AQAAgEhJfoGECX4BAACATFVKADx8/vj7DNIN3RDjFoYOfiW/AAAAQKwkv8ADyl1Z/vuRgaFruzay+Dd48LtpHAoAAABAnCS/wL12u13x0z8sqmqzaZumj2Yzi89l6LcYOkcDAAAAECfJL3CX7WFf/PqMUj21p0iy3/I5ePCr5RcAAACIluQXuOeUsf/dAIXqy/USxZZ+KsK/iTG/AAAAQKwkv8DNtscbBucWx/1p+UT08DTHu+j5BQAAAGIl+QVudTze9p/bfl565EPxvJvjbZrBQQEAAABESvIL3OaeubnVH/Vlwey3et7O8j5afgEAAIBoSX6Bm+yf7pqbu99dr0t1xN7amzya5BcAAACIluQXuMXz/s7/QnE8LJP93tObPI5hDwAAAEC8JL/A7xVP+wf+S4tkv7M1/Gr5BQAAAGIm+QV+q/j8WBvt/NnvXBN+v5H8AgAAAPGS/AK/9fj8hOJ4aOZb6237tJuxKrVhDwAAAEC8JL/A7zyPyVOL/b6u2zk2szgcijnLouUXAAAAiJjkF/iN/X70C7R1HX4zn2bNfTe95BcAAACImOQX+Fj5PMGZpnq61kGHPuyP25nrUjs0AAAAgIhJfoGPPU/yKsXx2NTBumTnz30lvwAAAEDcJL/Ah47lVK+02w113QXYxCVy303dOzYAAACAiEl+gY9sjxO+WHE4dHUzbWQ697puf9PyCwAAAERN8gt85Djx65VPT1OGv9vjbpHcd9O1jg0AAAAgZpJf4APb/fSv+S38bacY+7DfL3YKuzo2AAAAgKhJfoEPHMO8bPm06Zu2Hca8xm63ULvvm96wBwAAACBukt/g2mhr7Gl1fqvYBXvp7eGwadv2wcNw0djXlF8AAAAgfpJf4NcCx6tVtdm0bdfdN/a3rKrdwnUZDHsAAAAAIif5BX5thoT1Lf3tu67rbxn8W5RVWRXL1+U6ODYAAACAuEl+gzPtgfUqZuqt3W7f3qjru6EbfhEAl0W5Lcsijrpo+QUAAACiJ/kNbrBhOEHcpCy/B83dsPkx/91uoztTafkFAAAAoif5Da6zYThB3KWcZ8zE47T8AgAAAPHbKkFokl/Wq1SC92j5BQAAAOIn+Q1u6CPdMMkvvyX5fU+v5RcAAACIn+Q3vNZ2sVJFoQbvuGj5BQAAAOIn+Q0v0oS17+0afkPL77sfnVoNAAAAgPhJfsNrbRYk5KQEAAAAwApIfsOLtLm2sWdwfnhA60cTAAAAYA0kOzOIM2MVX+H88AgtvwAAAMAqSHZmEOVU0MYiVfCAiwHZAAAAwCpIfmfQdRFulEWq4AH9VQ0AAACAVZD8ziHClHUw5pcbDhMl+K+TmgAAAADrIPmdQx1fWKRxkRt0SvAfjfnYAAAAwEpIfucQYYOtYQ/wwEfZ8m4AAADAWkh+Z3GJbYNqq1RxA4fJf5j1AAAAAKyG5HcWfWwtthf7hFsOXCX4l8Z4bAAAAGA1JL/ziCxp1fLLbQz6/ZFZDwAAAMCKSH7n0Ue1otqg5ZcbD1wl+IFZDwAAAMCKSH5ncokpM7rK87hNqwT/Y9YDAAAAsCaS35kM53i2pdfyy40kvz98bsx6AAAAANZE8juXOp4MTYDFrTrzDf7xqhYAAADAmkh+ZxPNjNCrPk5uZsDB3y5WuwMAAABWRfI7mz6SeQ+dWQ/cTvL7l9bnBgAAAFgXye986jqGrRhOnlnndo3D5fvn5lUNAAAAgHWR/M7o1NkI1kbT7zcvEnAAAABgZSS/c4ogPboI8rjviFECP5gAAAAAayT5ndOwePRby/G4T29BwFgmtQAAAADcQ/I7q27h6Lc+2QfcyY8Fm87nBgAAAFgfye+8lo1+Bb/cr82+6bd/cRQAAAAA6yP5ndmS0a/gl0fk3vQ7vFrdDQAAAFghye/clot+Bb88pM18yK3V3QAAAIBVkvzOrvtzmSDpJPjlMeese15PjSMAAAAAWCPJ7/yGlzqTNyWRIzbneQ9XHxwAAABgnSS/CxhOp7mbKNs/W3XnUdd8217rs90PAAAArJPkdxH1y7wTHy4v1qhihFOf6R/emJECAAAArJXkdxnd1xlnp7Z/XlScMYbXPH866AS/AAAAwGpJfpdy/TrT/ND+9NIrN+N0WQ496PTKAwAAAOtVKcFS+lN9DF/+4XoVXjFevXnO7m8W/AIAAABrJvldUPtSHXZB36Gv5b5MI7/oV/ALAAAArJrkd1Ftuz3si2CvXtdKzFRyi34FvwAAAMC6SX4X1p/Pu90uQPjb1Y3xvkwpr+hX8AsAAACsnOR3eU2zqapqyj3Rt20r9mVqdf+pyOVvFfwCAAAAayf5jULbbjbVdluN3h993/dtL/UlzHH69VOZx18q+AUAAABWT/IbjVYJiF3/9emQw98p+AUAAADWb6sEwM3OL136f6TgFwAAAEiA5Be4Q/v1nHosWn8V/AIAAADrZ9oDcJdrfTikvNJbfbKPAQAAgARIfoH7DJfrMd1xv5eLPQwAAACkwLQH4F7D+TXVgQgnwS8AAACQBskvcL/mzybFP2v4Wtu3AAAAQBokv8ADhtcE2367l86eBQAAABIh+QUekl7bbyv4BQAAANIh+QUek1rb7/VlsFMBAACAZEh+gUc1f6YzFnc4ne1QAAAAICGSX+Bhw+mlT+Mv6V+s7QYAAAAkRfILjNB+vaTxZxjxCwAAAKSlUgJghOFSP6/+PHK52JEAAABAYiS/wDj9y+5p1U8PDK+tvQgAAACkRvILjNW0h0Ox3q0/DXYhAAAAkBzJLzDacKmP+7Vu+tX+AwAAABIk+QUm0J/q4xpPJ93J0m4AAABAkiS/wCTaNY77tbQbAAAAkCrJLzCRptkfV5X9avgFAAAA0iX5BSZT18cVLfWm4RcAAABImOQXmNDlelhJ9tueNfwCAAAACZP8AlMa1pH9DperfQUAAACkTPILTOst+91HPu+3Pg92FAAAAJA0yS8wteFyiXqtt+7c2kkAAABA4iS/QAB1vd9HenrpL7X9AwAAACRP8gsEUdfVfh/fZg3Xq0EPAAAAQAYkv0AgbXvZx7bY20XuCwAAAORB8kvqTHRdUH+57A9lPNtTX3o7BQAAAMiD5JcpdA4kfqGuy8Muisbf4VrLfQEAAIBsCOyYggfo+bXuVOyWX+3NfF8AAAAgL5JfphBzK6VpD8sb6nq7328X3ILuWtsNAAAAQFYkv0wh5uRXo2cch8jlUu73C019qGv5PwAAAJAbyS9T6Gwbv98T5/NuN//I3/5aS/8BAACA/Eh+mcIwFLFumuA3Jk2zqXa7Gcc+DM3VEQAAAABkSfLLJNpdrFsm94vtUGnP5W5XzvFWQ9M0Cg4AAABkSvLLJLpok18DXiM8WrpLsasCz30Q+wIAAAB5k/wyidaWcY+hrjdlVVWB0t+urTV7AwAAAHmT/DKJNtZBv31v58Sq664h0t++bVt7HQAAAMie5JdpxDro1wP/cXtLf7dVWVZTvZzUFwAAAOAbyS/TaCJNfg17iF9fbzabstxW5Zju377r2m5QTQAAAIDvJL9MI9Le2kHP70p0b3N5i7IsqqK887/a9+3QifgBAAAA/kXyyzSGeh/jZtX2zKqOovZbgLvdbrebarPdfvyf7oahe/uXugEAAAD8TPLLRCS/TOV/y/K9hb8/B8BvQx0MdgAAAAD4kOSXibT9NsKN0g+6br3l2gAAAAAes1UCJnKJcJu0/AIAAACQJ8kvU2nie/y+l/wCAAAAkCfJL1MZrtFt0sVeAQAAACBPkl8mc42t6VfLLwAAAAC5kvwymeEc2Qad7RMAAAAAMiX5ZTp1F9XmtI1dAgAAAECmJL9MKK4m25MdAgAAAECuJL9MqI1pkbdLb4cAAAAAkCvJL1OKKG3tLnYHAAAAANmS/DKl4TWaLTHrAQAAAICMSX6ZVBfLqN9zZ2cAAAAAkC/JL9O61jYDAAAAAJYm+WViUTTbtmc7AgAAAICcSX6Z2PCyfPTbvdoPAAAAAGRN8svUhtdh4S3oXga7AQAAAICsSX6ZXL9w8Cr4BQAAACB7kl+m1730i7674BcAAACA3El+CaD7utysX8EvAAAAAEh+CWJ4aRZ65/qr4BcAAAAAJL8EMbxeFnnf80ntAQAAAGBTKQFhXNpPxdzv2b92Cg8AAAAAen4Jp/1z7okPzVfBLwAAAABs9PwS0vC6e56x7bc/tWoOAAAAAN+USkA4fT3bbwvD9dTP9Fbb/SqK3wrCAQAAADKm55eQhkt9nCUnrS+9agMAAADA3yS/hNWfLsGz36GR+wIAAADAjyS/hNafzvtDwKUE+2s9qDIAAAAA/EjyS3jD9Vrud0HC376pOwUGAAAAgP+Q/DKL7nwud9W0h9vQtq3YFwAAAADeIfllLl232ZTltizKYuxLDd3Qdb3UFwAAAAB+QfLLnDppLQAAAADMYKsEAAAAAACJkfwCAAAAAKRG8gsAAAAAkBrJLwAAAABAaiS/AAAAAACpkfwCAAAAAKRG8gsAAAAAkBrJLwAAAABAaiS/AAAAAACpkfwCAAAAAKRG8gsAAAAAkBrJLwAAAABAaiS/AAAAAACpkfwCAAAAAKRG8gsAAAAAkBrJLwAAAABAaiS/AAAAAACpkfwCAAAAAKRG8gsAAAAAkBrJLwAAAABAaiS/AAAAAACpkfwCAAAAAKRG8gsAAAAAkBrJLwAAAABAaiS/AAAAAACpkfwCAAAAAKRG8gsAAAAAkBrJLwAAAABAaiS/AAAAAACpkfwCAAAAAKRG8gsAAAAAkBrJLwAAAABAaiS/cKdeCQAAAACIneQX7rSS5LezpwAAAAAyJvmFew22EgAAAIDISX7hXp2tBAAAACBykl+41zrGPej5BQAAAMiZ5BfutYpu2tZ+AgAAAMiZ5Bfu1dlIAAAAACIn+YV7raKdVvILAAAAkDXJL9yttY0AAAAAxE3yC3dbQara93YTAAAAQM4kv3C3xiYCAAAAEDfJL9ytG6LfxNpeAgAAAMia5BfuF32u2lvgDQAAACBvkl+4X/TJr2EPAAAAAJmT/ML9utjXT7vaRwAAAAB5k/zCAyJPVtveLgIAAADIm+QXHlDHvcab9d0AAAAAcif5hQcMUTf99pJfAAAAgNxJfuER15ibfi/2DwAAAEDuJL/wiJibfrX8AgAAACD5hYdE3PR7tncAAAAAslcqATxmF+l2tYY9AAAAAKDnFx5z7SLdMC2/AAAAAEh+4VGnODfr0tk1AAAAAJj2AA8aNlWEW9Wd7BkAAAAA9PzCw2Lsrh0EvwAAAABIfmGM1yG6TTqb9QAAAACAaQ8wxtDvI9ui+mKvAAAAACD5hVH6YRfV9nSv9gkAAAAAG8kvjNNtY/oIdS/2CAAAAADfSH5hjCai6Hd4GewQAAAAAL6R/MIo8US/w0tvdwAAAADwneQXxokl+u1fOzsDAAAAgL9IfmGkOKLfTscvAAAAAP8j+YWxmmG3+Da0r2b8AgAAAPA/kl8Yret2xbJbcD3ZCwAAAAD8QPIL4/VNtV3w7YfT1T4AAAAA4EeSX5jAUG+qxd68tbYbAAAAAP9RKAFMonxe5neU4aLhFwAAAID/kvzCVA7HBT5P9dnSbgAAAAD8RPIL032cDoeZP1Ht2aAHAAAAAN4h+YUpP1CzZr/NtVVyAAAAAN4j+YVpP1L7w3aWNxrqa6/cAAAAALxP8gtTK/e74OFv09QKDQAAAMAvSX4hgHJXVcFevG+b1rJuAAAAAHxE8guBVGW5LSf+hLVD10l9AQAAAPgtyS+E/YiVk73U0CknAAAAAAAAAAAAAAAAAAAAAAAAAAAAAAAAAAAAAAAAAAAAAAAAAAAAAAAAAAAAAAAAAAAAAAAAAAAAAAAAAAAAAAAAAAAAAAAAAAAAAAAAAAAAAAAAAAAAAAAAAAAAAAAAAAAAAAAAAAAAAAAAAAAAAAAAAAAAAAAAAAAAAAAAAAAAAAAAAAAAAAAAAAAAAAAAAAAAAAAAAAAAAAAAAAAAAAAAAAAAAAAAAAAAAAAAAAAAAAAAAAAAAAAAAAAAAAAAAAAAAAAAAAAAAAAAAAAAAAAAAAAAAAAAAAAAAAAAAAAAAAAAAAAAAAAAAAAAAAAAAAAAAAAAAAAAAAAAAAAAAAAAAAAAAAAAAAAAAAAAAAAAAAAAAAAAAAAAAAAAAAAAAAAAAAAAAAAAAAAAAAAAAAAAAAAAAAAAAAAAAAAAAAAAAAAAAAAAAAAAAAAAAAAAAAAAAAAAAAAAAAAAAAAAAAAAAAAAAAAAAAAAAAAAAAAAAAAAAAAAAAAAAAAAAAAAAAAAAAAAAAAAAAAAAAAAAAAAAAAAAAAAAAAAAAAAAAAAAAAAAAAAAAAAAAAAAAAAAAAAAAAAAAAAAAAAAAAAAAAAAAAAAAAAAAAAAAAAAAAAAAAAAAAAAAAAAAAAAEzn/wP4e2MAFLO3mwAAAABJRU5ErkJggg==;" vertex="1" parent="UEzPUAAOIrF-is8g5C7q-2">
          <mxGeometry x="333" y="412.3" width="654.5" height="173.61" as="geometry" />
        </mxCell>
        <mxCell id="UEzPUAAOIrF-is8g5C7q-23" value="7" style="rounded=1;whiteSpace=wrap;html=1;fillColor=#007CBD;strokeColor=none;fontColor=#FFFFFF;fontStyle=1;fontSize=22;" parent="UEzPUAAOIrF-is8g5C7q-2" vertex="1">
          <mxGeometry x="440" y="396.3" width="40" height="38" as="geometry" />
        </mxCell>
        <mxCell id="jldge3NsWJjI23dx_AQY-47" value="" style="edgeStyle=orthogonalEdgeStyle;rounded=0;jumpSize=1;orthogonalLoop=1;jettySize=auto;html=1;endSize=1;" edge="1" parent="UEzPUAAOIrF-is8g5C7q-2" source="jldge3NsWJjI23dx_AQY-16" target="jldge3NsWJjI23dx_AQY-18">
          <mxGeometry relative="1" as="geometry" />
        </mxCell>
        <mxCell id="jldge3NsWJjI23dx_AQY-16" value="" style="image;image=img/lib/atlassian/Jira_Software_Logo.svg;" vertex="1" parent="UEzPUAAOIrF-is8g5C7q-2">
          <mxGeometry x="210" y="356.3" width="74" height="86" as="geometry" />
        </mxCell>
        <mxCell id="UEzPUAAOIrF-is8g5C7q-34" style="edgeStyle=orthogonalEdgeStyle;rounded=0;orthogonalLoop=1;jettySize=auto;html=1;strokeColor=#545B64;strokeWidth=2;endFill=0;endArrow=open;startArrow=none;jumpSize=1;endSize=1;" parent="UEzPUAAOIrF-is8g5C7q-2" source="jldge3NsWJjI23dx_AQY-16" target="jldge3NsWJjI23dx_AQY-21" edge="1">
          <mxGeometry relative="1" as="geometry">
            <mxPoint x="141" y="376.2999999999999" as="sourcePoint" />
            <mxPoint x="141" y="466.3" as="targetPoint" />
          </mxGeometry>
        </mxCell>
        <mxCell id="UEzPUAAOIrF-is8g5C7q-35" style="edgeStyle=orthogonalEdgeStyle;rounded=0;orthogonalLoop=1;jettySize=auto;html=1;strokeColor=#545B64;strokeWidth=2;endFill=0;endArrow=open;startArrow=none;entryX=0.002;entryY=0.818;entryDx=0;entryDy=0;entryPerimeter=0;exitX=1;exitY=0.5;exitDx=0;exitDy=0;" parent="UEzPUAAOIrF-is8g5C7q-2" source="jldge3NsWJjI23dx_AQY-16" target="jldge3NsWJjI23dx_AQY-5" edge="1">
          <mxGeometry relative="1" as="geometry">
            <mxPoint x="162.80455495342335" y="362.3" as="sourcePoint" />
            <mxPoint x="315.5" y="362.2999999999999" as="targetPoint" />
          </mxGeometry>
        </mxCell>
        <mxCell id="jldge3NsWJjI23dx_AQY-18" value="" style="sketch=0;html=1;aspect=fixed;strokeColor=none;shadow=0;align=center;verticalAlign=top;fillColor=#3B8DF1;shape=mxgraph.gcp2.systems_check" vertex="1" parent="UEzPUAAOIrF-is8g5C7q-2">
          <mxGeometry x="247" y="216.3" width="61" height="61.62" as="geometry" />
        </mxCell>
        <mxCell id="jldge3NsWJjI23dx_AQY-21" value="" style="shape=image;html=1;verticalAlign=top;verticalLabelPosition=bottom;labelBackgroundColor=#ffffff;imageAspect=0;aspect=fixed;image=https://cdn4.iconfinder.com/data/icons/socialcones/508/Github-128.png" vertex="1" parent="UEzPUAAOIrF-is8g5C7q-2">
          <mxGeometry x="93.5" y="506.3" width="78" height="78" as="geometry" />
        </mxCell>
        <mxCell id="jldge3NsWJjI23dx_AQY-23" value="8" style="rounded=1;whiteSpace=wrap;html=1;fillColor=#007CBD;strokeColor=none;fontColor=#FFFFFF;fontStyle=1;fontSize=22;labelBackgroundColor=none;" vertex="1" parent="UEzPUAAOIrF-is8g5C7q-2">
          <mxGeometry x="40" y="546.3" width="40" height="38" as="geometry" />
        </mxCell>
        <mxCell id="UEzPUAAOIrF-is8g5C7q-22" value="6" style="rounded=1;whiteSpace=wrap;html=1;fillColor=#007CBD;strokeColor=none;fontColor=#FFFFFF;fontStyle=1;fontSize=22;" parent="UEzPUAAOIrF-is8g5C7q-2" vertex="1">
          <mxGeometry x="280" y="329.3" width="40" height="38" as="geometry" />
        </mxCell>
        <mxCell id="jldge3NsWJjI23dx_AQY-25" value="Estimacion de Alto Nivel&lt;br&gt;" style="sketch=0;outlineConnect=0;fontColor=#232F3E;gradientColor=none;fillColor=#B0084D;strokeColor=none;dashed=0;verticalLabelPosition=bottom;verticalAlign=top;align=center;html=1;fontSize=12;fontStyle=0;aspect=fixed;pointerEvents=1;shape=mxgraph.aws4.event_time_based;" vertex="1" parent="UEzPUAAOIrF-is8g5C7q-2">
          <mxGeometry x="70" y="266.3" width="78" height="78" as="geometry" />
        </mxCell>
        <mxCell id="jldge3NsWJjI23dx_AQY-32" value="" style="edgeStyle=orthogonalEdgeStyle;rounded=0;orthogonalLoop=1;jettySize=auto;html=1;strokeColor=#545B64;strokeWidth=2;endFill=0;endArrow=open;startArrow=none;" edge="1" parent="UEzPUAAOIrF-is8g5C7q-2" target="jldge3NsWJjI23dx_AQY-25">
          <mxGeometry relative="1" as="geometry">
            <mxPoint x="10.000000000000227" y="306.30000000000024" as="sourcePoint" />
            <mxPoint x="150.5" y="306.30000000000024" as="targetPoint" />
          </mxGeometry>
        </mxCell>
        <mxCell id="jldge3NsWJjI23dx_AQY-33" value="Plan de trabajo&lt;br&gt;" style="sketch=0;pointerEvents=1;shadow=0;dashed=0;html=1;strokeColor=none;fillColor=#434445;aspect=fixed;labelPosition=center;verticalLabelPosition=bottom;verticalAlign=top;align=center;outlineConnect=0;shape=mxgraph.vvd.recovery_plan;" vertex="1" parent="UEzPUAAOIrF-is8g5C7q-2">
          <mxGeometry x="93.5" y="166.3" width="36.5" height="50" as="geometry" />
        </mxCell>
        <mxCell id="jldge3NsWJjI23dx_AQY-34" style="edgeStyle=orthogonalEdgeStyle;rounded=0;orthogonalLoop=1;jettySize=auto;html=1;strokeColor=#545B64;strokeWidth=2;endFill=0;endArrow=open;startArrow=none;" edge="1" parent="UEzPUAAOIrF-is8g5C7q-2">
          <mxGeometry relative="1" as="geometry">
            <mxPoint x="107.88999999999953" y="276.58" as="sourcePoint" />
            <mxPoint x="107.88999999999953" y="226.301893951174" as="targetPoint" />
          </mxGeometry>
        </mxCell>
        <mxCell id="jldge3NsWJjI23dx_AQY-35" value="" style="sketch=0;pointerEvents=1;shadow=0;dashed=0;html=1;strokeColor=none;fillColor=#505050;labelPosition=center;verticalLabelPosition=bottom;verticalAlign=top;outlineConnect=0;align=center;shape=mxgraph.office.users.mail_user;" vertex="1" parent="UEzPUAAOIrF-is8g5C7q-2">
          <mxGeometry x="82.75" y="46.30000000000001" width="58" height="59" as="geometry" />
        </mxCell>
        <mxCell id="jldge3NsWJjI23dx_AQY-36" style="edgeStyle=orthogonalEdgeStyle;rounded=0;orthogonalLoop=1;jettySize=auto;html=1;strokeColor=#545B64;strokeWidth=2;endFill=0;endArrow=open;startArrow=none;" edge="1" parent="UEzPUAAOIrF-is8g5C7q-2">
          <mxGeometry relative="1" as="geometry">
            <mxPoint x="110.63999999999942" y="156.57999999999998" as="sourcePoint" />
            <mxPoint x="110.63999999999942" y="106.30189395117401" as="targetPoint" />
          </mxGeometry>
        </mxCell>
        <mxCell id="jldge3NsWJjI23dx_AQY-38" value="" style="shape=image;html=1;verticalAlign=top;verticalLabelPosition=bottom;labelBackgroundColor=#ffffff;imageAspect=0;aspect=fixed;image=https://cdn0.iconfinder.com/data/icons/construction-2-21/512/construction-industry-building-08-128.png" vertex="1" parent="UEzPUAAOIrF-is8g5C7q-2">
          <mxGeometry x="190" y="38.65" width="74.3" height="74.3" as="geometry" />
        </mxCell>
        <mxCell id="UEzPUAAOIrF-is8g5C7q-20" value="4" style="rounded=1;whiteSpace=wrap;html=1;fillColor=#007CBD;strokeColor=none;fontColor=#FFFFFF;fontStyle=1;fontSize=22;" parent="UEzPUAAOIrF-is8g5C7q-2" vertex="1">
          <mxGeometry x="148" y="36.30000000000001" width="40" height="38" as="geometry" />
        </mxCell>
        <mxCell id="UEzPUAAOIrF-is8g5C7q-33" style="edgeStyle=orthogonalEdgeStyle;rounded=0;orthogonalLoop=1;jettySize=auto;html=1;strokeColor=#545B64;strokeWidth=2;endFill=0;endArrow=open;startArrow=none;" parent="UEzPUAAOIrF-is8g5C7q-2" source="jldge3NsWJjI23dx_AQY-18" edge="1">
          <mxGeometry relative="1" as="geometry">
            <mxPoint x="236.97000000000003" y="173.95" as="sourcePoint" />
            <mxPoint x="237.97000000000003" y="112.95000000000002" as="targetPoint" />
          </mxGeometry>
        </mxCell>
        <mxCell id="UEzPUAAOIrF-is8g5C7q-21" value="5" style="rounded=1;whiteSpace=wrap;html=1;fillColor=#007CBD;strokeColor=none;fontColor=#FFFFFF;fontStyle=1;fontSize=22;" parent="UEzPUAAOIrF-is8g5C7q-2" vertex="1">
          <mxGeometry x="300" y="178.3" width="40" height="38" as="geometry" />
        </mxCell>
        <mxCell id="jldge3NsWJjI23dx_AQY-50" value="9" style="rounded=1;whiteSpace=wrap;html=1;fillColor=#007CBD;strokeColor=none;fontColor=#FFFFFF;fontStyle=1;fontSize=22;labelBackgroundColor=none;" vertex="1" parent="UEzPUAAOIrF-is8g5C7q-2">
          <mxGeometry x="380" y="56.80000000000001" width="40" height="38" as="geometry" />
        </mxCell>
        <mxCell id="jldge3NsWJjI23dx_AQY-54" value="" style="verticalLabelPosition=bottom;sketch=0;html=1;fillColor=#282828;strokeColor=none;verticalAlign=top;pointerEvents=1;align=center;shape=mxgraph.cisco_safe.people_places_things_icons.icon1;" vertex="1" parent="UEzPUAAOIrF-is8g5C7q-2">
          <mxGeometry x="363.5" y="105.30000000000001" width="116.5" height="100" as="geometry" />
        </mxCell>
        <mxCell id="jldge3NsWJjI23dx_AQY-55" value="&lt;span style=&quot;font-size: 12px; text-align: center;&quot;&gt;No aprobacion&lt;br&gt;&lt;/span&gt;" style="text;html=1;align=left;verticalAlign=top;spacingTop=-4;fontSize=14;labelBackgroundColor=none;whiteSpace=wrap;" vertex="1" parent="UEzPUAAOIrF-is8g5C7q-2">
          <mxGeometry x="284" y="105.3" width="82" height="30.7" as="geometry" />
        </mxCell>
        <mxCell id="jldge3NsWJjI23dx_AQY-58" value="" style="edgeStyle=orthogonalEdgeStyle;rounded=0;orthogonalLoop=1;jettySize=auto;html=1;strokeColor=#545B64;strokeWidth=2;endFill=0;endArrow=open;startArrow=none;entryX=0.255;entryY=0.48;entryDx=0;entryDy=0;entryPerimeter=0;" edge="1" parent="UEzPUAAOIrF-is8g5C7q-2" source="jldge3NsWJjI23dx_AQY-38" target="jldge3NsWJjI23dx_AQY-54">
          <mxGeometry relative="1" as="geometry">
            <mxPoint x="279.89" y="75.30000000000024" as="sourcePoint" />
            <mxPoint x="339.9966995274377" y="74.30000000000001" as="targetPoint" />
          </mxGeometry>
        </mxCell>
        <mxCell id="UEzPUAAOIrF-is8g5C7q-1" value="Automatizacion del gestor evolucion&lt;br&gt;" style="points=[[0,0],[0.25,0],[0.5,0],[0.75,0],[1,0],[1,0.25],[1,0.5],[1,0.75],[1,1],[0.75,1],[0.5,1],[0.25,1],[0,1],[0,0.75],[0,0.5],[0,0.25]];outlineConnect=0;gradientColor=none;html=1;whiteSpace=wrap;fontSize=12;fontStyle=0;shape=mxgraph.aws4.group;grIcon=mxgraph.aws4.group_corporate_data_center;strokeColor=#5A6C86;fillColor=none;verticalAlign=top;align=left;spacingLeft=30;fontColor=#5A6C86;dashed=0;container=1;pointerEvents=0;collapsible=0;recursiveResize=0;" parent="1" vertex="1">
          <mxGeometry x="11.5" y="175" width="404" height="523" as="geometry" />
        </mxCell>
        <mxCell id="jldge3NsWJjI23dx_AQY-1" value="" style="outlineConnect=0;dashed=0;verticalLabelPosition=bottom;verticalAlign=top;align=center;html=1;shape=mxgraph.aws3.lambda_function;fillColor=#F58534;gradientColor=none;" vertex="1" parent="UEzPUAAOIrF-is8g5C7q-1">
          <mxGeometry x="323.5" y="425" width="69" height="72" as="geometry" />
        </mxCell>
        <mxCell id="jldge3NsWJjI23dx_AQY-2" value="" style="outlineConnect=0;dashed=0;verticalLabelPosition=bottom;verticalAlign=top;align=center;html=1;shape=mxgraph.aws3.api_gateway;fillColor=#D9A741;gradientColor=none;" vertex="1" parent="UEzPUAAOIrF-is8g5C7q-1">
          <mxGeometry x="204" y="414.5" width="76.5" height="93" as="geometry" />
        </mxCell>
        <mxCell id="jldge3NsWJjI23dx_AQY-6" value="" style="shape=image;html=1;verticalAlign=top;verticalLabelPosition=bottom;labelBackgroundColor=#ffffff;imageAspect=0;aspect=fixed;image=https://cdn0.iconfinder.com/data/icons/construction-2-21/512/construction-industry-building-08-128.png" vertex="1" parent="UEzPUAAOIrF-is8g5C7q-1">
          <mxGeometry x="228.5" width="48" height="48" as="geometry" />
        </mxCell>
        <mxCell id="UEzPUAAOIrF-is8g5C7q-5" value="" style="whiteSpace=wrap;html=1;dashed=0;fontColor=#AAB7B8;fontStyle=0;align=left;verticalAlign=top;strokeColor=#248814;fillColor=none;gradientColor=none;spacingLeft=30;container=1;pointerEvents=0;collapsible=0;recursiveResize=0;" parent="1" vertex="1">
          <mxGeometry x="175.5" y="281" width="210" height="300" as="geometry" />
        </mxCell>
        <mxCell id="jldge3NsWJjI23dx_AQY-10" value="" style="shape=image;html=1;verticalAlign=top;verticalLabelPosition=bottom;labelBackgroundColor=#ffffff;imageAspect=0;aspect=fixed;image=https://cdn0.iconfinder.com/data/icons/long-shadow-web-icons/512/python-128.png" vertex="1" parent="UEzPUAAOIrF-is8g5C7q-5">
          <mxGeometry width="70" height="70" as="geometry" />
        </mxCell>
        <mxCell id="jldge3NsWJjI23dx_AQY-4" value="" style="shape=image;html=1;verticalAlign=top;verticalLabelPosition=bottom;labelBackgroundColor=#ffffff;imageAspect=0;aspect=fixed;image=https://cdn2.iconfinder.com/data/icons/competitive-strategy-and-corporate-training/512/199_robot_Android_artificial_bot_technology_app_development-128.png" vertex="1" parent="UEzPUAAOIrF-is8g5C7q-5">
          <mxGeometry x="84.5" y="49" width="69" height="69" as="geometry" />
        </mxCell>
        <mxCell id="jldge3NsWJjI23dx_AQY-14" value="" style="shape=image;html=1;verticalAlign=top;verticalLabelPosition=bottom;labelBackgroundColor=#ffffff;imageAspect=0;aspect=fixed;image=https://cdn2.iconfinder.com/data/icons/competitive-strategy-and-corporate-training/512/199_robot_Android_artificial_bot_technology_app_development-128.png" vertex="1" parent="UEzPUAAOIrF-is8g5C7q-5">
          <mxGeometry x="84.5" y="179" width="69" height="69" as="geometry" />
        </mxCell>
        <mxCell id="UEzPUAAOIrF-is8g5C7q-25" value="" style="edgeStyle=orthogonalEdgeStyle;rounded=0;orthogonalLoop=1;jettySize=auto;html=1;strokeColor=#545B64;strokeWidth=2;endFill=0;endArrow=open;startArrow=none;" parent="1" source="UEzPUAAOIrF-is8g5C7q-6" edge="1">
          <mxGeometry relative="1" as="geometry">
            <mxPoint x="263.51459282944415" y="360" as="targetPoint" />
          </mxGeometry>
        </mxCell>
        <mxCell id="UEzPUAAOIrF-is8g5C7q-26" value="" style="edgeStyle=orthogonalEdgeStyle;rounded=0;orthogonalLoop=1;jettySize=auto;html=1;strokeColor=#545B64;strokeWidth=2;endFill=0;endArrow=open;startArrow=none;" parent="1" source="UEzPUAAOIrF-is8g5C7q-7" edge="1">
          <mxGeometry relative="1" as="geometry">
            <mxPoint x="257" y="496" as="targetPoint" />
          </mxGeometry>
        </mxCell>
        <mxCell id="UEzPUAAOIrF-is8g5C7q-27" value="" style="edgeStyle=orthogonalEdgeStyle;rounded=0;orthogonalLoop=1;jettySize=auto;html=1;strokeColor=#545B64;strokeWidth=2;endFill=0;endArrow=open;startArrow=none;" parent="1" edge="1">
          <mxGeometry relative="1" as="geometry">
            <mxPoint x="335" y="496" as="sourcePoint" />
            <mxPoint x="485.5" y="494.29999999999995" as="targetPoint" />
          </mxGeometry>
        </mxCell>
        <mxCell id="UEzPUAAOIrF-is8g5C7q-28" value="" style="edgeStyle=orthogonalEdgeStyle;rounded=0;orthogonalLoop=1;jettySize=auto;html=1;strokeColor=#545B64;strokeWidth=2;endFill=0;endArrow=open;startArrow=none;entryX=0.451;entryY=0;entryDx=0;entryDy=0;entryPerimeter=0;" parent="1" target="jldge3NsWJjI23dx_AQY-24" edge="1">
          <mxGeometry relative="1" as="geometry">
            <mxPoint x="328.48540717055585" y="359.9999999999998" as="sourcePoint" />
            <mxPoint x="485.5" y="359.9999999999998" as="targetPoint" />
          </mxGeometry>
        </mxCell>
        <mxCell id="-QjtrjUzRDEMRZ5MF8oH-9" value="1" style="rounded=1;whiteSpace=wrap;html=1;fillColor=#007CBD;strokeColor=none;fontColor=#FFFFFF;fontStyle=1;fontSize=22;" parent="1" vertex="1">
          <mxGeometry x="122" y="244" width="40" height="38" as="geometry" />
        </mxCell>
        <mxCell id="-QjtrjUzRDEMRZ5MF8oH-47" value="Transformacion del proceso de Mejora" style="text;html=1;resizable=0;points=[];autosize=1;align=left;verticalAlign=top;spacingTop=-4;fontSize=30;fontStyle=1" parent="1" vertex="1">
          <mxGeometry x="12" y="65.5" width="570" height="40" as="geometry" />
        </mxCell>
        <mxCell id="-QjtrjUzRDEMRZ5MF8oH-48" value="Objetivo:&amp;nbsp;&lt;span style=&quot;font-size:11.0pt;line-height:115%;&lt;br/&gt;font-family:&amp;quot;Calibri&amp;quot;,sans-serif;mso-ascii-theme-font:minor-latin;mso-fareast-font-family:&lt;br/&gt;Calibri;mso-fareast-theme-font:minor-latin;mso-hansi-theme-font:minor-latin;&lt;br/&gt;mso-bidi-font-family:&amp;quot;Times New Roman&amp;quot;;mso-bidi-theme-font:minor-bidi;&lt;br/&gt;mso-ansi-language:ES-CO;mso-fareast-language:EN-US;mso-bidi-language:AR-SA&quot;&gt;transformación del proceso de mejoras y medicion y control de actividades&lt;/span&gt;" style="text;html=1;resizable=0;points=[];autosize=1;align=left;verticalAlign=top;spacingTop=-4;fontSize=16" parent="1" vertex="1">
          <mxGeometry x="12" y="115.5" width="620" height="30" as="geometry" />
        </mxCell>
        <mxCell id="SCVMTBWpLvtzJIhz15lM-1" value="" style="line;strokeWidth=2;html=1;fontSize=14;" parent="1" vertex="1">
          <mxGeometry x="8" y="140.5" width="1060" height="10" as="geometry" />
        </mxCell>
        <mxCell id="7OVz4w7n9kzEPWy-4BBC-3" value="" style="rounded=0;whiteSpace=wrap;html=1;fillColor=#EAEDED;fontSize=22;fontColor=#FFFFFF;strokeColor=none;labelBackgroundColor=none;" parent="1" vertex="1">
          <mxGeometry x="1106.5" y="52" width="539" height="969" as="geometry" />
        </mxCell>
        <mxCell id="7OVz4w7n9kzEPWy-4BBC-4" value="1" style="rounded=1;whiteSpace=wrap;html=1;fillColor=#007CBD;strokeColor=none;fontColor=#FFFFFF;fontStyle=1;fontSize=22;labelBackgroundColor=none;" parent="1" vertex="1">
          <mxGeometry x="1124.5" y="64" width="40" height="38" as="geometry" />
        </mxCell>
        <mxCell id="7OVz4w7n9kzEPWy-4BBC-5" value="2" style="rounded=1;whiteSpace=wrap;html=1;fillColor=#007CBD;strokeColor=none;fontColor=#FFFFFF;fontStyle=1;fontSize=22;labelBackgroundColor=none;" parent="1" vertex="1">
          <mxGeometry x="1123" y="186" width="40" height="38" as="geometry" />
        </mxCell>
        <mxCell id="7OVz4w7n9kzEPWy-4BBC-6" value="3" style="rounded=1;whiteSpace=wrap;html=1;fillColor=#007CBD;strokeColor=none;fontColor=#FFFFFF;fontStyle=1;fontSize=22;labelBackgroundColor=none;" parent="1" vertex="1">
          <mxGeometry x="1123" y="306" width="40" height="38" as="geometry" />
        </mxCell>
        <mxCell id="7OVz4w7n9kzEPWy-4BBC-7" value="4" style="rounded=1;whiteSpace=wrap;html=1;fillColor=#007CBD;strokeColor=none;fontColor=#FFFFFF;fontStyle=1;fontSize=22;labelBackgroundColor=none;" parent="1" vertex="1">
          <mxGeometry x="1123" y="420" width="40" height="38" as="geometry" />
        </mxCell>
        <mxCell id="7OVz4w7n9kzEPWy-4BBC-8" value="5" style="rounded=1;whiteSpace=wrap;html=1;fillColor=#007CBD;strokeColor=none;fontColor=#FFFFFF;fontStyle=1;fontSize=22;labelBackgroundColor=none;" parent="1" vertex="1">
          <mxGeometry x="1124.5" y="537" width="40" height="38" as="geometry" />
        </mxCell>
        <mxCell id="7OVz4w7n9kzEPWy-4BBC-9" value="6" style="rounded=1;whiteSpace=wrap;html=1;fillColor=#007CBD;strokeColor=none;fontColor=#FFFFFF;fontStyle=1;fontSize=22;labelBackgroundColor=none;" parent="1" vertex="1">
          <mxGeometry x="1125.5" y="652" width="40" height="38" as="geometry" />
        </mxCell>
        <mxCell id="7OVz4w7n9kzEPWy-4BBC-10" value="7" style="rounded=1;whiteSpace=wrap;html=1;fillColor=#007CBD;strokeColor=none;fontColor=#FFFFFF;fontStyle=1;fontSize=22;labelBackgroundColor=none;" parent="1" vertex="1">
          <mxGeometry x="1125" y="768" width="40" height="38" as="geometry" />
        </mxCell>
        <mxCell id="7OVz4w7n9kzEPWy-4BBC-11" value="8" style="rounded=1;whiteSpace=wrap;html=1;fillColor=#007CBD;strokeColor=none;fontColor=#FFFFFF;fontStyle=1;fontSize=22;labelBackgroundColor=none;" parent="1" vertex="1">
          <mxGeometry x="1125.5" y="886" width="40" height="38" as="geometry" />
        </mxCell>
        <mxCell id="7OVz4w7n9kzEPWy-4BBC-13" value="Desarrollo de un bot que mantenga una sesion activa sobre la herramienta de gestion maya validando si hay nuevos requerimientos recepcionar&lt;br&gt;" style="text;html=1;align=left;verticalAlign=top;spacingTop=-4;fontSize=14;labelBackgroundColor=none;whiteSpace=wrap;" parent="1" vertex="1">
          <mxGeometry x="1176" y="63.5" width="449" height="118" as="geometry" />
        </mxCell>
        <mxCell id="7OVz4w7n9kzEPWy-4BBC-14" value="El bot tiene un insumo de la matriz de escalamiento y el nivel de los analistas segun el servicio afectado. Para que de manera agil este cree las tareas de estimacion y socializacion con el cliente&amp;nbsp;&amp;nbsp;" style="text;html=1;align=left;verticalAlign=top;spacingTop=-4;fontSize=14;labelBackgroundColor=none;whiteSpace=wrap;" parent="1" vertex="1">
          <mxGeometry x="1176" y="186.5" width="450" height="115" as="geometry" />
        </mxCell>
        <mxCell id="7OVz4w7n9kzEPWy-4BBC-15" value="&lt;span style=&quot;font-size: 12px; text-align: center;&quot;&gt;Socializacion con el cliente,&lt;/span&gt;&lt;br style=&quot;font-size: 12px; text-align: center;&quot;&gt;&lt;span style=&quot;font-size: 12px; text-align: center;&quot;&gt;product owner (lider),&lt;/span&gt;&lt;br style=&quot;font-size: 12px; text-align: center;&quot;&gt;&lt;span style=&quot;font-size: 12px; text-align: center;&quot;&gt;Desarollador y&lt;/span&gt;&lt;br style=&quot;font-size: 12px; text-align: center;&quot;&gt;&lt;span style=&quot;font-size: 12px; text-align: center;&quot;&gt;QA para que el cliente exponga la necesidad principal y se puede tener un limite de la idea para que se pueda pasar a una estimacion de alto nivel de tiempo y plan de trabajo con sus respectivas fechas&lt;br&gt;&lt;/span&gt;" style="text;html=1;align=left;verticalAlign=top;spacingTop=-4;fontSize=14;labelBackgroundColor=none;whiteSpace=wrap;" parent="1" vertex="1">
          <mxGeometry x="1175" y="304.5" width="450" height="117" as="geometry" />
        </mxCell>
        <mxCell id="7OVz4w7n9kzEPWy-4BBC-16" value="&lt;span&gt;RPA que lea la respuesta del cliente y segun la misma se proceda como una aprobacion o no aprobacion segun sea el caso&lt;br&gt;&lt;br&gt;&lt;/span&gt;" style="text;html=1;align=left;verticalAlign=top;spacingTop=-4;fontSize=14;labelBackgroundColor=none;whiteSpace=wrap;" parent="1" vertex="1">
          <mxGeometry x="1175" y="420.5" width="450" height="121" as="geometry" />
        </mxCell>
        <mxCell id="7OVz4w7n9kzEPWy-4BBC-17" value="&lt;span&gt;Lorem ipsum dolor sit amet, consectetur adipiscing elit, sed do eiusmod tempor incididunt ut labore et dolore magna aliqua. Ut enim ad minim veniam, quis nostrud exercitation ullamco laboris nisi ut aliquip ex ea commodo consequat. Duis aute irure dolor in reprehenderit in voluptate velit esse cillum dolore eu fugiat nulla pariatur. Excepteur sint occaecat cupidatat non proident, sunt in culpa qui officia deserunt mollit anim id est laborum.&lt;/span&gt;&lt;br&gt;" style="text;html=1;align=left;verticalAlign=top;spacingTop=-4;fontSize=14;labelBackgroundColor=none;whiteSpace=wrap;" parent="1" vertex="1">
          <mxGeometry x="1176" y="537.5" width="449" height="114" as="geometry" />
        </mxCell>
        <mxCell id="7OVz4w7n9kzEPWy-4BBC-18" value="&lt;span&gt;Implementacion del backlog en Jira con las fechas tentivas de finalziacion del sprint y su respectivo analista asignado. Añadiendo a la mismas las HU y las pruebas a su finalizacion. Contando con un review&lt;/span&gt;" style="text;html=1;align=left;verticalAlign=top;spacingTop=-4;fontSize=14;labelBackgroundColor=none;whiteSpace=wrap;" parent="1" vertex="1">
          <mxGeometry x="1176" y="653.5" width="450" height="118" as="geometry" />
        </mxCell>
        <mxCell id="7OVz4w7n9kzEPWy-4BBC-19" value="&lt;span&gt;Tablero de control que se alimenta de la informacion para ser visualizada por el usuario de primera mano y lograr tener un control de tiempo y fecha ´+ graficos de avances + grafico de proyecciones, etc&lt;/span&gt;" style="text;html=1;align=left;verticalAlign=top;spacingTop=-4;fontSize=14;labelBackgroundColor=none;whiteSpace=wrap;" parent="1" vertex="1">
          <mxGeometry x="1176" y="768.5" width="449" height="113" as="geometry" />
        </mxCell>
        <mxCell id="7OVz4w7n9kzEPWy-4BBC-20" value="Cada Sprint se debe cargar los cambios al repositorio del codigo que se este usando para que el personal de pruebas pueda avanzar con las pruebas y/o documentacion o postmontajes de ser necesarios" style="text;html=1;align=left;verticalAlign=top;spacingTop=-4;fontSize=14;labelBackgroundColor=none;whiteSpace=wrap;" parent="1" vertex="1">
          <mxGeometry x="1176" y="887.5" width="449" height="124" as="geometry" />
        </mxCell>
        <mxCell id="UEzPUAAOIrF-is8g5C7q-6" value="Mejora" style="outlineConnect=0;fontColor=#232F3E;gradientColor=none;fillColor=#277116;strokeColor=none;dashed=0;verticalLabelPosition=bottom;verticalAlign=top;align=center;html=1;fontSize=12;fontStyle=0;aspect=fixed;pointerEvents=1;shape=mxgraph.aws4.factory;" parent="1" vertex="1">
          <mxGeometry x="38.500000000000156" y="320.99999999999994" width="78" height="78" as="geometry" />
        </mxCell>
        <mxCell id="UEzPUAAOIrF-is8g5C7q-7" value="Necesidad Tecnologia&lt;br&gt;" style="outlineConnect=0;fontColor=#232F3E;gradientColor=none;fillColor=#277116;strokeColor=none;dashed=0;verticalLabelPosition=bottom;verticalAlign=top;align=center;html=1;fontSize=12;fontStyle=0;aspect=fixed;pointerEvents=1;shape=mxgraph.aws4.factory;" parent="1" vertex="1">
          <mxGeometry x="38.500000000000156" y="456.99999999999994" width="78" height="78" as="geometry" />
        </mxCell>
        <mxCell id="UEzPUAAOIrF-is8g5C7q-10" value="2" style="rounded=1;whiteSpace=wrap;html=1;fillColor=#007CBD;strokeColor=none;fontColor=#FFFFFF;fontStyle=1;fontSize=22;" parent="1" vertex="1">
          <mxGeometry x="335" y="306" width="40" height="38" as="geometry" />
        </mxCell>
        <mxCell id="UEzPUAAOIrF-is8g5C7q-19" value="3" style="rounded=1;whiteSpace=wrap;html=1;fillColor=#007CBD;strokeColor=none;fontColor=#FFFFFF;fontStyle=1;fontSize=22;" parent="1" vertex="1">
          <mxGeometry x="510" y="490" width="40" height="38" as="geometry" />
        </mxCell>
        <mxCell id="jldge3NsWJjI23dx_AQY-17" value="" style="edgeStyle=orthogonalEdgeStyle;rounded=0;orthogonalLoop=1;jettySize=auto;html=1;strokeColor=#545B64;strokeWidth=2;endFill=0;endArrow=none;startArrow=none;" edge="1" parent="1" target="jldge3NsWJjI23dx_AQY-16">
          <mxGeometry relative="1" as="geometry">
            <mxPoint x="721" y="560" as="sourcePoint" />
            <mxPoint x="721" y="542" as="targetPoint" />
            <Array as="points">
              <mxPoint x="721" y="570" />
              <mxPoint x="719" y="570" />
            </Array>
          </mxGeometry>
        </mxCell>
        <mxCell id="jldge3NsWJjI23dx_AQY-24" value="" style="verticalLabelPosition=bottom;sketch=0;html=1;fillColor=#282828;strokeColor=none;verticalAlign=top;pointerEvents=1;align=center;shape=mxgraph.cisco_safe.people_places_things_icons.icon1;" vertex="1" parent="1">
          <mxGeometry x="463.5" y="381.95" width="116.5" height="100" as="geometry" />
        </mxCell>
        <mxCell id="jldge3NsWJjI23dx_AQY-48" value="Retrospectiva o Reuion de retroalimentacion del motivo de no aprobacion y mejoras a la estimacion tecnologias o solucion plateada con otros desatrrolladores que puedan apotar a la solucion&lt;br&gt;" style="text;html=1;align=left;verticalAlign=top;spacingTop=-4;fontSize=14;labelBackgroundColor=none;whiteSpace=wrap;" vertex="1" parent="1">
          <mxGeometry x="1165.5" y="960" width="449" height="124" as="geometry" />
        </mxCell>
        <mxCell id="jldge3NsWJjI23dx_AQY-49" value="9" style="rounded=1;whiteSpace=wrap;html=1;fillColor=#007CBD;strokeColor=none;fontColor=#FFFFFF;fontStyle=1;fontSize=22;labelBackgroundColor=none;" vertex="1" parent="1">
          <mxGeometry x="1120" y="960" width="40" height="38" as="geometry" />
        </mxCell>
      </root>
    </mxGraphModel>
  </diagram>
</mxfile>
